<svg xmlns="http://www.w3.org/2000/svg" width="169.238" height="70.125" viewBox="0 0 169.238 70.125">
  <g id="Group_21377" data-name="Group 21377" transform="translate(26.413 1011.122)">
    <path id="Path_4135" data-name="Path 4135" d="M645.482-750.913a6.476,6.476,0,0,1,2.361,3.946c.046.535.057,1.067.054,1.6,0,.243,0,.486.006.729a6.941,6.941,0,0,1-1.78,4.895,5.341,5.341,0,0,1-1.78,1.1l-.325.133a5.85,5.85,0,0,1-4.141-.375,6.4,6.4,0,0,1-2.761-3.848,9.477,9.477,0,0,1,1-6.8,5.368,5.368,0,0,1,3.273-2.221A5.63,5.63,0,0,1,645.482-750.913Zm-5.686,1.446c-1.352,1.569-1.348,3.68-1.248,5.638a5.9,5.9,0,0,0,1.388,3.372,4.164,4.164,0,0,0,3.3.879,2.985,2.985,0,0,0,1.861-.992,7.9,7.9,0,0,0,1.3-5.673,5.165,5.165,0,0,0-1.622-3.493A3.99,3.99,0,0,0,639.8-749.468Z" transform="translate(-583.239 -227.993)"/>
    <path id="Path_4136" data-name="Path 4136" d="M770.347-751.546a3.789,3.789,0,0,1,1.474,2.393,21.956,21.956,0,0,1,.031,2.2q0,.354,0,.708c0,.617-.01,1.233-.018,1.85s-.011,1.262-.014,1.894q-.012,1.853-.035,3.705h-1.448v-.383q-.007-1.79-.021-3.58-.007-.92-.01-1.841,0-.889-.012-1.778,0-.338,0-.677c0-.317,0-.634-.007-.951l0-.28a3.045,3.045,0,0,0-.551-1.737,2.451,2.451,0,0,0-2.091-.637,4.328,4.328,0,0,0-2.737,1.361l-.181.16c-.786.832-.647,1.917-.64,2.986q0,.319-.005.637c0,.556,0,1.113,0,1.669s0,1.138-.007,1.707q-.01,1.671-.008,3.343h-1.449v-13.037c1.207,0,1.207,0,1.328.121.029.325.051.648.068.973.005.092.01.183.016.278q.019.34.037.681l.151-.186C765.688-751.727,768.174-752.914,770.347-751.546Z" transform="translate(-693.777 -227.719)"/>
    <path id="Path_4137" data-name="Path 4137" d="M1216.472-751.094a3.8,3.8,0,0,1,1.429,2.478c.011.331.015.658.014.988v.3q0,.483,0,.966,0,.336,0,.671,0,.882,0,1.764,0,.9,0,1.8,0,1.766-.006,3.532h-1.449l0-.365q-.011-1.7-.026-3.41-.008-.877-.013-1.753,0-.846-.014-1.693,0-.322,0-.644c0-.3,0-.6-.008-.906v-.267a4.313,4.313,0,0,0-.415-1.706l-.091-.272a1.751,1.751,0,0,0-1-.694,4.23,4.23,0,0,0-3.259.724,3.444,3.444,0,0,0-1.5,2.12q0,.251,0,.5l0,.279c0,.3,0,.6-.006.907q0,.315-.006.631-.009.828-.013,1.657-.005.846-.015,1.692-.016,1.659-.025,3.317h-1.448v-13.037h1.328l.241,1.931.272-.362A4.6,4.6,0,0,1,1216.472-751.094Z" transform="translate(-1085.941 -228.034)"/>
    <path id="Path_4138" data-name="Path 4138" d="M538.922-782.529a.908.908,0,0,1,.392.458c0,.441-.313.654-.6.964a16.763,16.763,0,0,1-1.709-.8,5.878,5.878,0,0,0-3.5-.2,4.917,4.917,0,0,0-.822.4l-.252.138c-1.364.866-1.906,2.6-2.348,4.063a12.185,12.185,0,0,0,1.031,7.628,5.05,5.05,0,0,0,3.138,2.173,6.544,6.544,0,0,0,4.1-.966l.241-.241a.788.788,0,0,1,.483.121,7.858,7.858,0,0,1,.6.724,4.6,4.6,0,0,1-1.531,1.109l-.261.127a5.248,5.248,0,0,1-1.949.574l-.416.029a6.561,6.561,0,0,1-4.986-1.863,9.789,9.789,0,0,1-2.241-6.9l0-.436a9.551,9.551,0,0,1,2.418-6.515C533.1-784.159,536.228-784.081,538.922-782.529Z" transform="translate(-487.748 -200.009)"/>
    <path id="Path_4139" data-name="Path 4139" d="M876.556-750.461c.255.166.5.337.742.523a2.272,2.272,0,0,1-.724,1.086l-.287-.176-.384-.231-.378-.229a5.432,5.432,0,0,0-3.176-.45,3.292,3.292,0,0,0-1.569.966,3.32,3.32,0,0,0-.158,1.071c0,.124-.009.248-.014.376a1.443,1.443,0,0,0,.534.967,7.864,7.864,0,0,0,2.535,1.026,6.048,6.048,0,0,1,3.8,2.278,4.761,4.761,0,0,1,.074,2.986A4.323,4.323,0,0,1,875-738.109a5.3,5.3,0,0,1-1.826.279l-.271,0a6.416,6.416,0,0,1-4.3-1.6,1.317,1.317,0,0,1,.6-.966,4.6,4.6,0,0,1,1.553.661,5.528,5.528,0,0,0,3.665.339,3.03,3.03,0,0,0,1.421-1,3.949,3.949,0,0,0-.03-2.474,7.5,7.5,0,0,0-3.176-1.441,5.452,5.452,0,0,1-3.433-2.12,3.468,3.468,0,0,1-.154-2.464,4.661,4.661,0,0,1,.4-.674l.256-.377C871.393-751.856,874.542-751.638,876.556-750.461Z" transform="translate(-786.982 -228.402)"/>
    <path id="Path_4140" data-name="Path 4140" d="M961.228-775.548v3.138h3.259c-.121,1.207-.121,1.207-.242,1.328-.224.011-.448.013-.672.012h-.411l-.433,0-.435,0-1.067-.006q.015,1.823.035,3.645.009.846.016,1.693.007.817.016,1.634,0,.311.006.623,0,.437.009.874v.259a3.565,3.565,0,0,0,.279,1.412,3.027,3.027,0,0,0,2.052.362,8.175,8.175,0,0,0,.84-.295.9.9,0,0,1,.73.053,5.7,5.7,0,0,1,.362.845,4.9,4.9,0,0,1-3.878.687,3.2,3.2,0,0,1-1.75-1.675,3.468,3.468,0,0,1-.207-1.442v-.286c0-.309,0-.618.006-.927q0-.323,0-.646,0-.847.009-1.694.005-.866.007-1.731.006-1.7.018-3.391h-2.173v-1.328h2.052l0-.63q0-.405,0-.811c0-.137,0-.274,0-.416v-.395l0-.366c.014-.28.014-.28.134-.4A8.191,8.191,0,0,1,961.228-775.548Z" transform="translate(-865.239 -207.138)"/>
    <path id="Path_4141" data-name="Path 4141" d="M1313.228-775.548v3.138h3.259a3.059,3.059,0,0,1-.121,1.328h-3.139q.011,1.772.029,3.545.008.823.013,1.646,0,.795.014,1.59,0,.3,0,.605,0,.425.009.85v.251a2.727,2.727,0,0,0,.6,1.759,2.715,2.715,0,0,0,1.871.256,13.046,13.046,0,0,0,1.328-.362,6.736,6.736,0,0,1,.483.724c-.121.362-.121.362-.306.495a4.881,4.881,0,0,1-3.556.448,3.332,3.332,0,0,1-1.812-1.788,5.923,5.923,0,0,1-.134-1.536v-.279q0-.454,0-.907,0-.315,0-.631,0-.829,0-1.657,0-.846,0-1.692,0-1.659.006-3.317h-2.173v-1.328h2.173v-3.018A6.93,6.93,0,0,1,1313.228-775.548Z" transform="translate(-1174.749 -207.138)"/>
    <path id="Path_4142" data-name="Path 4142" d="M1100.4-745.975a6.2,6.2,0,0,0-1.905-3.582l-.268-.16a5.287,5.287,0,0,0-5.512.134,6.738,6.738,0,0,0-2.455,4.574c-.165,2.42.04,4.724,1.69,6.639a4.51,4.51,0,0,0,3.3,1.382l.342-.009a7,7,0,0,0,4.323-1.494l-.151-.347a1.007,1.007,0,0,0-.694-.619,6.4,6.4,0,0,1-2.173,1.086,4.727,4.727,0,0,1-3.5-.724,7.064,7.064,0,0,1-1.569-4.1h8.571Zm-1.328,1.69h-7.243a5.967,5.967,0,0,1,1.4-4.206,3.489,3.489,0,0,1,4.149-.381,4.821,4.821,0,0,1,1.69,3.138Z" transform="translate(-981.843 -229.227)"/>
    <path id="Path_4143" data-name="Path 4143" d="M1044.607-749.548h1.449v12.916h-1.449Z" transform="translate(-941.737 -229.999)"/>
    <path id="Path_4144" data-name="Path 4144" d="M1042.139-796.173a1.358,1.358,0,0,1,1.026.679,1.019,1.019,0,0,1-.038,1c-.2.332-.2.332-.445.453a3.7,3.7,0,0,1-1.086,0,1.3,1.3,0,0,1-.551-1.026,1.251,1.251,0,0,1,.317-.777A1.3,1.3,0,0,1,1042.139-796.173Z" transform="translate(-938.605 -189.003)"/>
    <path id="Path_4145" data-name="Path 4145" d="M1161.848-659.548a1.007,1.007,0,0,1,.694.619l.151.347c-.573.483-.573.483-.845.483v-.241l-.241-.121.128-.211a.862.862,0,0,0-.008-.754Z" transform="translate(-1044.614 -309.135)"/>
    <path id="Path_4146" data-name="Path 4146" d="M873.607-649.548l.332.121a1.5,1.5,0,0,0,.875.121l.121.362-.241.121a4.313,4.313,0,0,1-.558-.294l-.3-.173-.229-.136Z" transform="translate(-791.379 -317.928)"/>
    <path id="Path_4147" data-name="Path 4147" d="M1098.607-659.548l.6.121a1.04,1.04,0,0,1,0,.845Z" transform="translate(-989.219 -309.135)"/>
    <path id="Path_4148" data-name="Path 4148" d="M1234.848-740.548l.362.121-.121.362a2.05,2.05,0,0,1-.483.121C1234.712-740.412,1234.712-740.412,1234.848-740.548Z" transform="translate(-1108.802 -237.913)"/>
    <g id="Group_1642" data-name="Group 1642" transform="translate(-26.413 -1007.518)">
      <g id="Group_1641" data-name="Group 1641" transform="translate(0 0)">
        <path id="Path_4149" data-name="Path 4149" d="M-15.835-981.07c-.117.131-.2.233-.252.288a29.435,29.435,0,0,0-6.9,19.369q0,.431,0,.862,0,1.164,0,2.327v2.195q0,2.307,0,4.615,0,1.972,0,3.946,0,2.3,0,4.6v.736q0,.846,0,1.692,0,1.142,0,2.284c0,.279,0,.556,0,.835a21.73,21.73,0,0,0,.757,6.347c.023.081.047.161.071.244a16.517,16.517,0,0,0,2.947,5.671c.051.064.1.127.156.192A17.455,17.455,0,0,0-9.108-918.6c.206.045.41.1.614.151a14.254,14.254,0,0,0,3.658.317c.351,0,.7,0,1.053,0a20.023,20.023,0,0,0,5.911-.744l.314-.093a19.532,19.532,0,0,0,2.848-1.144l.354-.171a16.2,16.2,0,0,0,3.61-2.6c.218-.2.441-.384.675-.566,2.938-2.51,4.732-6.97,5.042-10.724.045-.622.071-1.243.1-1.867h3.38a19.687,19.687,0,0,1-.966,6.88c-.027.08-.052.159-.08.241a19.946,19.946,0,0,1-5.232,8.088l-.28.287-.324.316-.229.228A20.165,20.165,0,0,1-1.9-914.759l-.429,0h-.892c-.444,0-.89,0-1.334.01a21.862,21.862,0,0,1-15.584-6.165c-3.591-3.609-6.242-8.668-6.23-13.853,0-.13,0-.261,0-.395,0-.432,0-.864,0-1.3l0-.935q0-1.266,0-2.534,0-.793,0-1.586,0-2.2,0-4.407v-1.426q0-2.29-.008-4.582-.007-2.359-.007-4.721,0-1.322,0-2.644-.005-1.244,0-2.49c0-.3,0-.6,0-.908-.039-6.409,2.673-11.6,7.017-16.163.1-.1.2-.19.3-.287l.209-.212a9.2,9.2,0,0,1,1.9-1.364l.261-.148c.212-.117.432-.223.653-.327.243-.075.374-.094.392-.058S-15.722-981.162-15.835-981.07Z" transform="translate(26.413 981.267)" fill="#1192ee"/>
      </g>
    </g>
    <path id="Path_4150" data-name="Path 4150" d="M64.447-1011.117q.5,0,1,0a22.742,22.742,0,0,1,5.818.539l.3.073a18.7,18.7,0,0,1,3.805,1.376l.25.12a19.747,19.747,0,0,1,5.239,3.682c.185.181.373.36.561.538A21.151,21.151,0,0,1,84.9-1000.2l.129.215a11.249,11.249,0,0,1,.716,1.474l.1.235a20.6,20.6,0,0,1,1.713,8.577h-3.38c-.01-.329-.02-.657-.03-1a17.723,17.723,0,0,0-5.16-11.558l-.3-.32a17.462,17.462,0,0,0-12.145-5.035q-.757-.009-1.513,0c-.385,0-.769,0-1.154,0a16.682,16.682,0,0,0-4.08.411l-.305.071a17,17,0,0,0-7.179,3.792l-.311.267a17.643,17.643,0,0,0-5.845,11.683c-.043.771-.037,1.544-.037,2.316q0,.343,0,.685,0,.924,0,1.848,0,.58,0,1.16,0,2.031,0,4.061,0,1.88-.009,3.761-.006,1.624-.006,3.248,0,.966,0,1.931c-.017,3.323.079,6.377,1.308,9.515l.175.46c.484,1.266,1.011,2.509,1.606,3.727l.133.277a38.346,38.346,0,0,0,5.178,7.69l-.241.121a2.911,2.911,0,0,1-.474-.24l-.289-.166-.308-.182-.315-.185a21.217,21.217,0,0,1-3.8-2.969l-.276-.261a14.408,14.408,0,0,1-1.535-1.791l-.306-.4a21.551,21.551,0,0,1-4.3-13.44q0-.355,0-.711,0-1.161-.007-2.321,0-.4,0-.8,0-1.675-.006-3.35,0-2.387-.013-4.773-.007-1.685-.008-3.371,0-1-.006-2.006c-.03-5.388-.03-5.388.671-7.7l.1-.34a22,22,0,0,1,10.488-13.021,21.935,21.935,0,0,1,5.466-2.089l.378-.1A20.829,20.829,0,0,1,64.447-1011.117Z" transform="translate(-60.663 0)" fill="#7bd433"/>
    <path id="Path_4151" data-name="Path 4151" d="M313.476-604.638h3.138a19.221,19.221,0,0,1-5.571,14.008,18.122,18.122,0,0,1-7.828,4.943l.414-.413q.206-.207.409-.419l.225-.232c.128-.132.175-.183.213-.221a5.015,5.015,0,0,1,.452-.409c.411-.4.735-.74.95-.97a31.813,31.813,0,0,0,3.252-4.1l.149-.222a31.359,31.359,0,0,0,2.989-5.813l.112-.279A17.638,17.638,0,0,0,313.476-604.638Z" transform="translate(-289.84 -357.417)" fill="#7ad431"/>
    <path id="Path_4152" data-name="Path 4152" d="M243.99-943.428h3.138c.159-4.329-1.9-8.1-5.571-11.242a19.158,19.158,0,0,0-7.828-3.967l.414.332q.206.166.409.336l.225.186c.128.106.175.147.213.178a4.8,4.8,0,0,0,.452.328c.411.322.735.594.95.778a27.527,27.527,0,0,1,3.252,3.288l.149.179a23.8,23.8,0,0,1,2.989,4.665l.113.224A11.719,11.719,0,0,1,243.99-943.428Z" transform="translate(-228.741 -46.149)" fill="#1292ed"/>
  </g>
</svg>
