<svg xmlns="http://www.w3.org/2000/svg" width="102.279" height="18.961" viewBox="0 0 102.279 18.961">
  <g id="Group_21413" data-name="Group 21413" transform="translate(-117.891 -66.517)">
    <path id="Path_4135" data-name="Path 4135" d="M645.482-750.913a6.476,6.476,0,0,1,2.361,3.946c.046.535.057,1.067.054,1.6,0,.243,0,.486.006.729a6.941,6.941,0,0,1-1.78,4.895,5.341,5.341,0,0,1-1.78,1.1l-.325.133a5.85,5.85,0,0,1-4.141-.375,6.4,6.4,0,0,1-2.761-3.848,9.477,9.477,0,0,1,1-6.8,5.368,5.368,0,0,1,3.273-2.221A5.63,5.63,0,0,1,645.482-750.913Zm-5.686,1.446c-1.352,1.569-1.348,3.68-1.248,5.638a5.9,5.9,0,0,0,1.388,3.372,4.164,4.164,0,0,0,3.3.879,2.985,2.985,0,0,0,1.861-.992,7.9,7.9,0,0,0,1.3-5.673,5.165,5.165,0,0,0-1.622-3.493A3.99,3.99,0,0,0,639.8-749.468Z" transform="translate(-505.894 823.7)" fill="#fff"/>
    <path id="Path_4136" data-name="Path 4136" d="M770.347-751.546a3.789,3.789,0,0,1,1.474,2.393,21.956,21.956,0,0,1,.031,2.2q0,.354,0,.708c0,.617-.01,1.233-.018,1.85s-.011,1.262-.014,1.894q-.012,1.853-.035,3.705h-1.448v-.383q-.007-1.79-.021-3.58-.007-.92-.01-1.841,0-.889-.012-1.778,0-.338,0-.677c0-.317,0-.634-.007-.951l0-.28a3.045,3.045,0,0,0-.551-1.737,2.451,2.451,0,0,0-2.091-.637,4.328,4.328,0,0,0-2.737,1.361l-.181.16c-.786.832-.647,1.917-.64,2.986q0,.319-.005.637c0,.556,0,1.113,0,1.669s0,1.138-.007,1.707q-.01,1.671-.008,3.343h-1.449v-13.037c1.207,0,1.207,0,1.328.121.029.325.051.648.068.973.005.092.01.183.016.278q.019.34.037.681l.151-.186C765.688-751.727,768.174-752.914,770.347-751.546Z" transform="translate(-616.432 823.973)" fill="#fff"/>
    <path id="Path_4137" data-name="Path 4137" d="M1216.472-751.094a3.8,3.8,0,0,1,1.429,2.478c.011.331.015.658.014.988v.3q0,.483,0,.966,0,.336,0,.671,0,.882,0,1.764,0,.9,0,1.8,0,1.766-.006,3.532h-1.449l0-.365q-.011-1.7-.026-3.41-.008-.877-.013-1.753,0-.846-.014-1.693,0-.322,0-.644c0-.3,0-.6-.008-.906v-.267a4.313,4.313,0,0,0-.415-1.706l-.091-.272a1.751,1.751,0,0,0-1-.694,4.23,4.23,0,0,0-3.259.724,3.444,3.444,0,0,0-1.5,2.12q0,.251,0,.5l0,.279c0,.3,0,.6-.006.907q0,.315-.006.631-.009.828-.013,1.657-.005.846-.015,1.692-.016,1.659-.025,3.317h-1.448v-13.037h1.328l.241,1.931.272-.362A4.6,4.6,0,0,1,1216.472-751.094Z" transform="translate(-1008.595 823.659)" fill="#fff"/>
    <path id="Path_4138" data-name="Path 4138" d="M538.922-782.529a.908.908,0,0,1,.392.458c0,.441-.313.654-.6.964a16.763,16.763,0,0,1-1.709-.8,5.878,5.878,0,0,0-3.5-.2,4.917,4.917,0,0,0-.822.4l-.252.138c-1.364.866-1.906,2.6-2.348,4.063a12.185,12.185,0,0,0,1.031,7.628,5.05,5.05,0,0,0,3.138,2.173,6.544,6.544,0,0,0,4.1-.966l.241-.241a.788.788,0,0,1,.483.121,7.858,7.858,0,0,1,.6.724,4.6,4.6,0,0,1-1.531,1.109l-.261.127a5.248,5.248,0,0,1-1.949.574l-.416.029a6.561,6.561,0,0,1-4.986-1.863,9.789,9.789,0,0,1-2.241-6.9l0-.436a9.551,9.551,0,0,1,2.418-6.515C533.1-784.159,536.228-784.081,538.922-782.529Z" transform="translate(-410.402 851.684)" fill="#fff"/>
    <path id="Path_4139" data-name="Path 4139" d="M876.556-750.461c.255.166.5.337.742.523a2.272,2.272,0,0,1-.724,1.086l-.287-.176-.384-.231-.378-.229a5.432,5.432,0,0,0-3.176-.45,3.292,3.292,0,0,0-1.569.966,3.32,3.32,0,0,0-.158,1.071c0,.124-.009.248-.014.376a1.443,1.443,0,0,0,.534.967,7.864,7.864,0,0,0,2.535,1.026,6.048,6.048,0,0,1,3.8,2.278,4.761,4.761,0,0,1,.074,2.986A4.323,4.323,0,0,1,875-738.109a5.3,5.3,0,0,1-1.826.279l-.271,0a6.416,6.416,0,0,1-4.3-1.6,1.317,1.317,0,0,1,.6-.966,4.6,4.6,0,0,1,1.553.661,5.528,5.528,0,0,0,3.665.339,3.03,3.03,0,0,0,1.421-1,3.949,3.949,0,0,0-.03-2.474,7.5,7.5,0,0,0-3.176-1.441,5.452,5.452,0,0,1-3.433-2.12,3.468,3.468,0,0,1-.154-2.464,4.661,4.661,0,0,1,.4-.674l.256-.377C871.393-751.856,874.542-751.638,876.556-750.461Z" transform="translate(-709.636 823.291)" fill="#fff"/>
    <path id="Path_4140" data-name="Path 4140" d="M961.228-775.548v3.138h3.259c-.121,1.207-.121,1.207-.242,1.328-.224.011-.448.013-.672.012h-.411l-.433,0-.435,0-1.067-.006q.015,1.823.035,3.645.009.846.016,1.693.007.817.016,1.634,0,.311.006.623,0,.437.009.874v.259a3.565,3.565,0,0,0,.279,1.412,3.027,3.027,0,0,0,2.052.362,8.175,8.175,0,0,0,.84-.295.9.9,0,0,1,.73.053,5.7,5.7,0,0,1,.362.845,4.9,4.9,0,0,1-3.878.687,3.2,3.2,0,0,1-1.75-1.675,3.468,3.468,0,0,1-.207-1.442v-.286c0-.309,0-.618.006-.927q0-.323,0-.646,0-.847.009-1.694.005-.866.007-1.731.006-1.7.018-3.391h-2.173v-1.328h2.052l0-.63q0-.405,0-.811c0-.137,0-.274,0-.416v-.395l0-.366c.014-.28.014-.28.134-.4A8.191,8.191,0,0,1,961.228-775.548Z" transform="translate(-787.893 844.555)" fill="#fff"/>
    <path id="Path_4141" data-name="Path 4141" d="M1313.228-775.548v3.138h3.259a3.059,3.059,0,0,1-.121,1.328h-3.139q.011,1.772.029,3.545.008.823.013,1.646,0,.795.014,1.59,0,.3,0,.605,0,.425.009.85v.251a2.727,2.727,0,0,0,.6,1.759,2.715,2.715,0,0,0,1.871.256,13.046,13.046,0,0,0,1.328-.362,6.736,6.736,0,0,1,.483.724c-.121.362-.121.362-.306.495a4.881,4.881,0,0,1-3.556.448,3.332,3.332,0,0,1-1.812-1.788,5.923,5.923,0,0,1-.134-1.536v-.279q0-.454,0-.907,0-.315,0-.631,0-.829,0-1.657,0-.846,0-1.692,0-1.659.006-3.317h-2.173v-1.328h2.173v-3.018A6.93,6.93,0,0,1,1313.228-775.548Z" transform="translate(-1097.403 844.555)" fill="#fff"/>
    <path id="Path_4142" data-name="Path 4142" d="M1100.4-745.975a6.2,6.2,0,0,0-1.905-3.582l-.268-.16a5.287,5.287,0,0,0-5.512.134,6.738,6.738,0,0,0-2.455,4.574c-.165,2.42.04,4.724,1.69,6.639a4.51,4.51,0,0,0,3.3,1.382l.342-.009a7,7,0,0,0,4.323-1.494l-.151-.347a1.007,1.007,0,0,0-.694-.619,6.4,6.4,0,0,1-2.173,1.086,4.727,4.727,0,0,1-3.5-.724,7.064,7.064,0,0,1-1.569-4.1h8.571Zm-1.328,1.69h-7.243a5.967,5.967,0,0,1,1.4-4.206,3.489,3.489,0,0,1,4.149-.381,4.821,4.821,0,0,1,1.69,3.138Z" transform="translate(-904.497 822.466)" fill="#fff"/>
    <path id="Path_4143" data-name="Path 4143" d="M1044.607-749.548h1.449v12.916h-1.449Z" transform="translate(-864.391 821.693)" fill="#fff"/>
    <path id="Path_4144" data-name="Path 4144" d="M1042.139-796.173a1.358,1.358,0,0,1,1.026.679,1.019,1.019,0,0,1-.038,1c-.2.332-.2.332-.445.453a3.7,3.7,0,0,1-1.086,0,1.3,1.3,0,0,1-.551-1.026,1.251,1.251,0,0,1,.317-.777A1.3,1.3,0,0,1,1042.139-796.173Z" transform="translate(-861.26 862.69)" fill="#fff"/>
    <path id="Path_4145" data-name="Path 4145" d="M1161.848-659.548a1.007,1.007,0,0,1,.694.619l.151.347c-.573.483-.573.483-.845.483v-.241l-.241-.121.128-.211a.862.862,0,0,0-.008-.754Z" transform="translate(-967.268 742.557)" fill="#fff"/>
    <path id="Path_4146" data-name="Path 4146" d="M873.607-649.548l.332.121a1.5,1.5,0,0,0,.875.121l.121.362-.241.121a4.313,4.313,0,0,1-.558-.294l-.3-.173-.229-.136Z" transform="translate(-714.033 733.765)" fill="#fff"/>
    <path id="Path_4147" data-name="Path 4147" d="M1098.607-659.548l.6.121a1.04,1.04,0,0,1,0,.845Z" transform="translate(-911.873 742.557)" fill="#fff"/>
    <path id="Path_4148" data-name="Path 4148" d="M1234.848-740.548l.362.121-.121.362a2.05,2.05,0,0,1-.483.121C1234.712-740.412,1234.712-740.412,1234.848-740.548Z" transform="translate(-1031.457 813.78)" fill="#fff"/>
  </g>
</svg>
