<svg xmlns="http://www.w3.org/2000/svg" xmlns:xlink="http://www.w3.org/1999/xlink" width="582.78" height="444.947" viewBox="0 0 582.78 444.947">
  <defs>
    <linearGradient id="linear-gradient" x1="1" y1="0.589" x2="0.287" y2="0.207" gradientUnits="objectBoundingBox">
      <stop offset="0" stop-color="#004b80"/>
      <stop offset="1" stop-color="#027bff"/>
    </linearGradient>
    <linearGradient id="linear-gradient-2" x1="0.5" y1="-0.194" x2="0.5" y2="0.976" gradientUnits="objectBoundingBox">
      <stop offset="0" stop-color="#c6d9fa"/>
      <stop offset="1" stop-color="#fefefe"/>
    </linearGradient>
    <linearGradient id="linear-gradient-3" x1="0.5" y1="-0.563" x2="0.5" y2="0.969" xlink:href="#linear-gradient-2"/>
    <linearGradient id="linear-gradient-4" x1="0.5" y1="-0.332" x2="0.5" y2="0.973" gradientUnits="objectBoundingBox">
      <stop offset="0" stop-color="#2c8dff"/>
      <stop offset="1" stop-color="#fefefe"/>
    </linearGradient>
    <linearGradient id="linear-gradient-5" x1="0.5" y1="-0.631" x2="0.5" y2="0.967" xlink:href="#linear-gradient-4"/>
    <linearGradient id="linear-gradient-6" x1="0.612" y1="0.5" x2="0" y2="0.083" gradientUnits="objectBoundingBox">
      <stop offset="0" stop-color="#0659b4"/>
      <stop offset="0.488" stop-color="#047efc"/>
      <stop offset="1" stop-color="#1191ea"/>
    </linearGradient>
    <linearGradient id="linear-gradient-7" y1="0.5" x2="1" y2="0.5" gradientUnits="objectBoundingBox">
      <stop offset="0" stop-color="#fefefe"/>
      <stop offset="1" stop-color="#c6d9fa"/>
    </linearGradient>
  </defs>
  <g id="Group_21376" data-name="Group 21376" transform="translate(-59.085 -191.927)">
    <g id="Group_1676" data-name="Group 1676" transform="translate(-79.309 69.529)">
      <g id="Group_1675" data-name="Group 1675" transform="translate(148.24 117.202)">
        <path id="Path_4162" data-name="Path 4162" d="M269.387,202.037a48.486,48.486,0,0,0-1.165-10.588,5.486,5.486,0,0,1,2.581-5.976l4.8-2.771a5.47,5.47,0,0,0,2-7.475l-5.064-8.774a5.474,5.474,0,0,0-7.477-2l-4.814,2.779a5.483,5.483,0,0,1-6.467-.754,48.269,48.269,0,0,0-18.328-10.586,5.477,5.477,0,0,1-3.88-5.219v-5.553a5.472,5.472,0,0,0-5.473-5.473h-10.13a5.472,5.472,0,0,0-5.473,5.473v5.553a5.478,5.478,0,0,1-3.878,5.219,48.276,48.276,0,0,0-18.33,10.586,5.483,5.483,0,0,1-6.467.754l-4.814-2.779a5.47,5.47,0,0,0-7.475,2l-5.066,8.774a5.472,5.472,0,0,0,2,7.475l4.8,2.771a5.482,5.482,0,0,1,2.581,5.976,48.677,48.677,0,0,0,0,21.176,5.485,5.485,0,0,1-2.581,5.975l-4.8,2.771a5.473,5.473,0,0,0-2,7.475l5.066,8.774a5.47,5.47,0,0,0,7.475,2l4.814-2.779a5.486,5.486,0,0,1,6.467.754,48.276,48.276,0,0,0,18.33,10.586A5.478,5.478,0,0,1,210.5,253.4v5.553a5.472,5.472,0,0,0,5.473,5.473H226.1a5.472,5.472,0,0,0,5.473-5.473V253.4a5.477,5.477,0,0,1,3.88-5.219A48.269,48.269,0,0,0,253.785,237.6a5.486,5.486,0,0,1,6.467-.754l4.814,2.78a5.475,5.475,0,0,0,7.477-2l5.064-8.772a5.472,5.472,0,0,0-2-7.477l-4.8-2.771a5.484,5.484,0,0,1-2.581-5.975A48.486,48.486,0,0,0,269.387,202.037Zm-48.348,24.739a24.739,24.739,0,1,1,24.739-24.739A24.739,24.739,0,0,1,221.039,226.775Z" transform="translate(-135.427 -98.648)" opacity="0.94" fill="url(#linear-gradient)"/>
        <g id="Group_1645" data-name="Group 1645" transform="translate(191.378 297.468)">
          <path id="Path_4153" data-name="Path 4153" d="M310.608,383.441a86.8,86.8,0,0,1-16.894,27.517,100.685,100.685,0,0,1-10.78,10.228c-1.841,1.5-3.654,2.914-5.466,4.22-1.845,1.292-3.659,2.492-5.422,3.6a99.685,99.685,0,0,1-10.022,5.568,86.251,86.251,0,0,1-8.213,3.588c-4.691,1.79-7.534,2.543-7.534,2.543s-.442-2.981-.837-7.874c-.17-2.455-.373-5.387-.6-8.67-.194-3.294-.294-6.9-.422-10.809-.046-1.942-.064-3.937-.04-5.968-.007-2.048-.007-4.151.058-6.27.174-4.213.309-8.641.817-13.025a98.105,98.105,0,0,1,18.529-50.484c2.45-3.67,5.21-7.136,7.8-10.46,1.321-1.657,2.682-3.261,4.014-4.817,1.3-1.566,2.6-3.075,3.891-4.525,2.623-2.9,5.035-5.583,7.313-7.97,2.3-2.355,4.35-4.459,6.069-6.22,3.465-3.476,5.731-5.466,5.731-5.466s1.682,2.415,4.1,6.816a86.484,86.484,0,0,1,3.942,8.049,99.749,99.749,0,0,1,4.037,10.729c.627,1.989,1.233,4.077,1.8,6.255.535,2.17,1,4.421,1.436,6.756a100.455,100.455,0,0,1,1.6,14.773A86.821,86.821,0,0,1,310.608,383.441Z" transform="translate(-244.366 -298.151)" fill="url(#linear-gradient-2)"/>
          <g id="Group_1644" data-name="Group 1644" transform="translate(1.762)">
            <path id="Path_4154" data-name="Path 4154" d="M314.693,357.126l.055-1.708c-2.21,1.14-5.057,2.7-8.233,4.633-3.224,1.922-6.829,4.205-10.448,6.858a93.544,93.544,0,0,0-21.05,20.113c3.789-8.889,7.1-17.976,10.055-27.174a41.273,41.273,0,0,1,2.165-5.4,43.2,43.2,0,0,1,2.676-4.973,64.755,64.755,0,0,1,6.631-8.725,93.457,93.457,0,0,1,7.406-7.214c2.486-2.152,4.978-4.039,7.156-5.663-.142-.5-.285-1.007-.426-1.5-7,5.146-16.372,12.943-22.506,23.239a326.967,326.967,0,0,0,10.232-50.55l-.6-.91h0l-.818.738A325.479,325.479,0,0,1,286.8,349.218c.232-12.037-5.046-22.775-9.779-29.5l-.924,1.085a55.494,55.494,0,0,1,4.339,7.477,48.579,48.579,0,0,1,3.495,9.3,40.862,40.862,0,0,1,1.463,10.61,41.506,41.506,0,0,1-.351,5.594,37.489,37.489,0,0,1-1.332,5.625c-2.937,9.16-6.239,18.208-10.011,27.057,1.735-10.042-.1-19.925-2.945-27.956a77.622,77.622,0,0,0-4.885-10.7,80.8,80.8,0,0,0-4.775-7.437l-.787,1.229a70.4,70.4,0,0,1,10.727,22.536c2.685,9.965,3.087,22.028-2.126,33.2-1.622,3.511-3.354,6.973-5.06,10.444-1.827,3.411-3.528,6.889-5.458,10.243,3.429-12.262,1.485-24.688-1.646-33.955a71.67,71.67,0,0,0-8.365-17.04l-.473,1.7a67.132,67.132,0,0,1,4.5,8.239,69.82,69.82,0,0,1,4.912,14.284c2.506,11.021,2.421,24.971-4.876,37.059-2.245,3.845-4.708,7.557-7.106,11.308l.148,1.092,1.045-.3c2.411-3.767,4.883-7.5,7.139-11.357,7.256-12.024,18.257-20.179,28.685-26.235a153.812,153.812,0,0,1,14.379-7.278c4.174-1.849,7.6-3.082,9.419-3.749l.915-1.92a143.875,143.875,0,0,0-18.679,8.042c-9.346,4.777-20.2,11.421-28.741,20.811,1.938-3.369,3.646-6.863,5.48-10.289,1.714-3.487,3.454-6.964,5.084-10.491,5.2-11.142,13.526-19.6,22.02-26.368A150.39,150.39,0,0,1,314.693,357.126Z" transform="translate(-245.331 -298.151)" fill="#fff"/>
          </g>
        </g>
        <g id="Group_1647" data-name="Group 1647" transform="translate(26.154 364.242)">
          <path id="Path_4155" data-name="Path 4155" d="M213.474,366.423a89.421,89.421,0,0,1,5.217,19.077c.678,3.162,1.032,6.485,1.56,9.589.236,1.571.417,3.16.608,4.706.234,1.511.44,3.012.623,4.488.322,2.991.743,5.714,1.054,8.257.15,1.277.29,2.49.424,3.626.155,1.111.3,2.145.431,3.091.508,3.805.709,6.207.709,6.207a56.149,56.149,0,0,1-6.264-.669c-.992-.152-2.09-.34-3.283-.574q-1.74-.395-3.734-.957a60.81,60.81,0,0,1-8.765-3.085q-2.337-1.019-4.834-2.263c-1.615-.864-3.232-1.838-4.9-2.879a69.346,69.346,0,0,1-9.817-7.51,60.72,60.72,0,0,1-19.868-49.13,69.556,69.556,0,0,1,1.838-12.223c.473-1.905.959-3.729,1.52-5.473q.923-2.628,1.9-4.987a60.664,60.664,0,0,1,4.156-8.31q1.047-1.792,2.019-3.285c.7-1,1.354-1.9,1.962-2.695a56.725,56.725,0,0,1,4.037-4.836s1.525,1.867,3.807,4.954l1.838,2.525,2.216,2.9c1.545,2.046,3.133,4.3,4.984,6.67.893,1.189,1.788,2.411,2.671,3.659.935,1.246,1.911,2.514,2.835,3.807,1.776,2.6,3.831,5.234,5.543,7.978A89.4,89.4,0,0,1,213.474,366.423Z" transform="translate(-198.556 -359.589)" fill="url(#linear-gradient-3)"/>
          <g id="Group_1646" data-name="Group 1646" transform="translate(-35.988 -43)">
            <path id="Path_4156" data-name="Path 4156" d="M205.919,352.042l-.575-.908a53.576,53.576,0,0,0-4.01,5.491,51.1,51.1,0,0,0-3.993,8.135c-2.24,6.162-3.548,14.013-1.584,21.823a135.272,135.272,0,0,1-8.628-21.047A28.811,28.811,0,0,1,186.1,361.1a32.376,32.376,0,0,1-.153-4.414,27.942,27.942,0,0,1,1.531-8.239,31.617,31.617,0,0,1,3.274-6.993,34.517,34.517,0,0,1,3.948-5.382l-.636-.879c-4.3,4.667-9.163,12.729-9.251,22.267a136.917,136.917,0,0,1-4.2-40.188c-.353-.437-.55-.683-.55-.683h0l-.581.63a138.079,138.079,0,0,0,4.231,40.52c-4.615-8.254-11.549-15.095-16.653-19.941l-.449,1.2c1.569,1.518,3.444,3.243,5.279,5.155s3.635,4.01,5.486,6.237a66.605,66.605,0,0,1,4.963,7.2,34.707,34.707,0,0,1,2.011,4,33.762,33.762,0,0,1,1.7,4.288,136.292,136.292,0,0,0,8.7,21.213,100,100,0,0,0-17.373-15.559c-2.874-2.176-5.764-4.1-8.328-5.762-2.494-1.684-4.737-3.082-6.482-4.121l.027,1.432a202.667,202.667,0,0,1,17.926,12.209A94.6,94.6,0,0,1,190.6,384.25a46.931,46.931,0,0,1,4.607,5.232,46.331,46.331,0,0,1,4.065,5.9c1.56,2.651,3.274,5.212,4.951,7.791l2.7,3.745c.888,1.257,1.8,2.5,2.791,3.676-7.857-6.235-16.991-10.638-24.821-14.035-3.855-1.7-7.34-3.1-10.1-4.092s-4.609-1.672-5.316-1.882l.839,1.593c1.471.524,4.324,1.449,7.777,2.813,1.746.672,3.592,1.48,5.639,2.327s4.2,1.79,6.372,2.839c8.842,4.194,18.268,9.439,25.723,17.647,2.313,2.687,4.9,5.11,7.415,7.609l.855.047-.08-.873c-2.49-2.477-5.058-4.878-7.353-7.543a34.193,34.193,0,0,1-2.567-3.182A39.08,39.08,0,0,1,212.1,410.4a31.35,31.35,0,0,1-1.573-3.546q-.619-1.836-1.054-3.666c-.292-1.217-.524-2.426-.707-3.619-.132-1.226-.21-2.437-.243-3.624a36.306,36.306,0,0,1,.371-6.832,51.555,51.555,0,0,1,1.3-6.087,44.9,44.9,0,0,1,1.838-5.1,42.617,42.617,0,0,1,3.292-6.4l-.384-1.215a38.444,38.444,0,0,0-2.526,4.3,51.354,51.354,0,0,0-3.489,8.992c-1.986,7.234-2.558,17.145,1.681,26.3-.985-1.169-1.889-2.4-2.769-3.646l-2.678-3.714c-1.662-2.559-3.363-5.1-4.91-7.729a33.78,33.78,0,0,1-2.879-6.461,41.112,41.112,0,0,1-1.332-6.644,37.529,37.529,0,0,1,1.114-12.614,42.054,42.054,0,0,1,4.107-10.212A43.505,43.505,0,0,1,205.919,352.042Z" transform="translate(-162.563 -316.589)" fill="#fff"/>
          </g>
        </g>
        <g id="Group_1649" data-name="Group 1649" transform="matrix(0.839, 0.545, -0.545, 0.839, 519.39, 304.698)">
          <path id="Path_4157" data-name="Path 4157" d="M437.173,376.411a95.66,95.66,0,0,1-10.913,21.2c-2.068,3.286-4.447,6.408-6.635,9.428-1.12,1.505-2.284,2.967-3.416,4.392-1.092,1.43-2.2,2.817-3.292,4.154-2.236,2.669-4.26,5.163-6.187,7.395l-5.121,5.848c-2.916,3.286-4.841,5.2-4.841,5.2s-1.637-2.061-4.041-5.888a70.729,70.729,0,0,1-3.939-7.051,83.2,83.2,0,0,1-4.1-9.518c-.639-1.776-1.266-3.644-1.865-5.6-.559-1.947-1.049-3.975-1.516-6.081a86.7,86.7,0,0,1-1.854-13.4,72.061,72.061,0,0,1,19.414-54.413,86.855,86.855,0,0,1,9.92-9.2c1.7-1.335,3.358-2.594,5.024-3.749,1.7-1.134,3.369-2.185,4.989-3.155A82.881,82.881,0,0,1,428,311.194a71.027,71.027,0,0,1,7.512-2.965c4.284-1.441,6.858-2,6.858-2s.278,2.7.455,7.09c.073,2.209.163,4.837.261,7.769.08,2.947.068,6.158.11,9.642,0,1.728-.022,3.5-.08,5.3-.026,1.82-.049,3.688-.135,5.561-.219,3.723-.353,7.647-.831,11.5A95.707,95.707,0,0,1,437.173,376.411Z" transform="translate(-379.349 -306.229)" fill="url(#linear-gradient-4)"/>
          <g id="Group_1648" data-name="Group 1648" transform="translate(1.831)">
            <path id="Path_4158" data-name="Path 4158" d="M440.829,357.3,441,356.03a68.709,68.709,0,0,0-7.567,2.178,65.918,65.918,0,0,0-9.523,4.381c-6.575,3.8-13.54,9.541-18.018,17.517a227.915,227.915,0,0,1,8.619-24.4,33.585,33.585,0,0,1,2.358-4.615,37.164,37.164,0,0,1,3.036-4.006,35.306,35.306,0,0,1,7.225-6.3,41.329,41.329,0,0,1,7.852-4.152,46.637,46.637,0,0,1,7.338-2.369c.009-.424.016-.849.026-1.268-7.161,1.589-17.1,5.636-24,13.962a236.371,236.371,0,0,1,23.274-39.735c-.057-.632-.09-.987-.09-.987h0l-.95.232a237.841,237.841,0,0,0-23.4,39.949c1.86-10.59.223-21.439-1.33-29.138l-1.193.76c.468,2.406,1.008,5.181,1.39,8.124s.6,6.052.687,9.3a62.081,62.081,0,0,1-.656,9.843,39.141,39.141,0,0,1-1.1,4.958,37.252,37.252,0,0,1-1.662,4.956,229.4,229.4,0,0,0-8.665,24.534,90.594,90.594,0,0,0-2.974-26.067c-.923-3.939-2.052-7.632-3.117-10.859-1.016-3.2-2.026-5.961-2.848-8.058l-.976,1.217a152.71,152.71,0,0,1,6.874,23.159c1.911,9.618,2.842,20.223.234,30.952-.84,3.387-1.551,6.807-2.289,10.217-.594,3.44-1.345,6.852-1.807,10.314-.9-11.359-4.781-22.128-8.584-30.829a144.023,144.023,0,0,0-8.349-16.4l-.477,1.887c.866,1.518,2.539,4.37,4.377,8.067,1.8,3.69,3.973,8.275,5.89,13.328,3.882,10.188,7.1,22.039,5.753,34.572-.5,3.988-.718,8-1.018,12.006l.586.78.7-.707c.3-3.982.515-7.974,1.012-11.94,1.359-12.605,9.074-22.515,16.995-28.734a58.583,58.583,0,0,1,11.46-7.064,56.378,56.378,0,0,1,7.775-3.058l.632-1.41a60.546,60.546,0,0,0-15.44,6.893c-7.389,4.609-15.727,12.212-20.038,22.8.46-3.442,1.208-6.836,1.8-10.258.736-3.392,1.443-6.794,2.278-10.163,2.61-10.751,9.8-18.893,17.378-24.132A59.289,59.289,0,0,1,440.829,357.3Z" transform="translate(-380.351 -306.229)" fill="#fff"/>
          </g>
        </g>
        <g id="Group_1651" data-name="Group 1651" transform="translate(437.793 281.127) rotate(-6)">
          <path id="Path_4159" data-name="Path 4159" d="M407.17,376.652a82.223,82.223,0,0,1-9.728,16.925c-1.787,2.636-3.856,5.139-5.722,7.585-.957,1.217-1.957,2.4-2.925,3.559-.928,1.164-1.863,2.294-2.8,3.389-1.854,2.157-3.619,4.211-5.23,6.083l-2.329,2.607c-.707.811-1.366,1.566-1.969,2.258-2.437,2.748-4.048,4.368-4.048,4.368a57.415,57.415,0,0,1-3.4-4.934c-.506-.806-1.052-1.706-1.626-2.7q-.808-1.485-1.664-3.248a64.033,64.033,0,0,1-3.359-8.082c-.515-1.513-1.018-3.107-1.492-4.775-.437-1.662-.807-3.392-1.158-5.192a69.85,69.85,0,0,1-1.224-11.454,59.326,59.326,0,0,1,18.982-45.48,69.853,69.853,0,0,1,9-7.185c1.527-1.018,3.016-1.969,4.5-2.828,1.522-.837,3.009-1.6,4.446-2.3a64.176,64.176,0,0,1,8.107-3.3q1.855-.628,3.482-1.1,1.666-.438,3.063-.745a57.433,57.433,0,0,1,5.9-1.052s-.02,2.285-.259,5.95c-.068.915-.143,1.914-.221,2.987-.068,1.094-.139,2.263-.214,3.491-.2,2.463-.418,5.161-.648,8-.122,1.432-.269,2.894-.444,4.372-.143,1.5-.281,3.045-.471,4.582-.427,3.045-.751,6.277-1.368,9.4A82.339,82.339,0,0,1,407.17,376.652Z" transform="translate(-358.491 -319.055)" fill="url(#linear-gradient-5)"/>
          <g id="Group_1650" data-name="Group 1650" transform="translate(2.247)">
            <path id="Path_4160" data-name="Path 4160" d="M410.724,361.262l.208-1.034a54.294,54.294,0,0,0-6.419,1.3,52.5,52.5,0,0,0-8.164,3.078c-5.661,2.8-11.772,7.28-15.791,13.811a159.684,159.684,0,0,1,8.277-20.046,27.784,27.784,0,0,1,2.22-3.736,31.176,31.176,0,0,1,2.773-3.168,28.3,28.3,0,0,1,6.425-4.8,32.665,32.665,0,0,1,6.821-2.892,36.341,36.341,0,0,1,6.27-1.392l.111-1.047c-6.065.718-14.649,3.365-20.921,9.925a164.123,164.123,0,0,1,22.42-31.381l.016-.833h0l-.811.106a165.088,165.088,0,0,0-22.568,31.587c2.179-8.745,1.6-17.958.943-24.558l-1.063.555c.19,2.055.433,4.435.532,6.936s.048,5.122-.09,7.855a56.079,56.079,0,0,1-1.178,8.213,32.7,32.7,0,0,1-1.211,4.085,31.443,31.443,0,0,1-1.655,4.063,160.275,160.275,0,0,0-8.33,20.175,82.945,82.945,0,0,0-1.343-22.05c-.555-3.361-1.292-6.545-1.991-9.333-.648-2.762-1.315-5.155-1.867-6.982l-.9.983a148.749,148.749,0,0,1,4.423,19.936c1.12,8.2,1.474,17.108-1,26.03-.8,2.817-1.467,5.672-2.163,8.515-.55,2.877-1.261,5.723-1.677,8.624-.619-9.534-3.582-18.688-6.474-26.18a136.665,136.665,0,0,0-6.339-14.213L359.721,365c.652,1.321,1.944,3.814,3.339,7.015,1.359,3.191,3.025,7.15,4.477,11.472,2.954,8.728,5.415,18.717,4.231,29.216-.449,3.343-.612,6.714-.855,10.075l.493.65.583-.6c.243-3.339.4-6.686.849-10.007,1.191-10.574,7.883-18.754,14.669-23.663a45.878,45.878,0,0,1,9.788-5.442,44.451,44.451,0,0,1,6.589-2.181l.577-1.122a47.646,47.646,0,0,0-13.126,5.042c-6.308,3.549-13.507,9.686-17.254,18.518.415-2.881,1.12-5.709,1.666-8.568.692-2.824,1.357-5.659,2.15-8.46,2.477-8.944,8.845-15.495,15.416-19.463A46.481,46.481,0,0,1,410.724,361.262Z" transform="translate(-359.721 -319.055)" fill="#fff"/>
          </g>
        </g>
        <path id="Path_4161" data-name="Path 4161" d="M247.524,177.826c-63.438-20.548-116.817,40.566-93.852,91.392,23.814,52.7,85.752,6.259,60.168-8.233-12.859-7.285-37.291,7.2-45.648,29.375-10.594,28.105-15.035,49.658-8.774,82.066,12.627,65.35,74.9,104.124,131.6,65.2,29.715-20.4,59.156-54.706,105.317-54.706" transform="translate(-148.24 -70.454)" fill="none" stroke="#1d325f" stroke-width="1" stroke-dasharray="3"/>
        <path id="Path_4163" data-name="Path 4163" d="M223.071,208.076a37.436,37.436,0,0,1,.9-8.188,4.241,4.241,0,0,0-2-4.618l-3.71-2.143a4.231,4.231,0,0,1-1.549-5.78l3.917-6.783a4.23,4.23,0,0,1,5.78-1.549l3.721,2.148a4.241,4.241,0,0,0,5-.583A37.315,37.315,0,0,1,249.3,172.4a4.239,4.239,0,0,0,3-4.037v-4.293a4.231,4.231,0,0,1,4.231-4.231h7.832a4.231,4.231,0,0,1,4.233,4.231v4.293a4.237,4.237,0,0,0,3,4.037,37.309,37.309,0,0,1,14.172,8.184,4.24,4.24,0,0,0,5,.583l3.721-2.148a4.231,4.231,0,0,1,5.78,1.549l3.917,6.783a4.232,4.232,0,0,1-1.549,5.78l-3.71,2.143a4.236,4.236,0,0,0-2,4.618,37.66,37.66,0,0,1,0,16.374,4.238,4.238,0,0,0,2,4.62l3.71,2.143a4.232,4.232,0,0,1,1.549,5.78l-3.917,6.783a4.232,4.232,0,0,1-5.78,1.549l-3.721-2.15a4.24,4.24,0,0,0-5,.583,37.312,37.312,0,0,1-14.172,8.186,4.235,4.235,0,0,0-3,4.035v4.295a4.231,4.231,0,0,1-4.231,4.231h-7.833a4.231,4.231,0,0,1-4.231-4.231V247.79a4.237,4.237,0,0,0-3-4.035,37.319,37.319,0,0,1-14.171-8.186,4.237,4.237,0,0,0-5-.581l-3.721,2.148a4.232,4.232,0,0,1-5.78-1.549l-3.917-6.783a4.23,4.23,0,0,1,1.549-5.78l3.71-2.143a4.244,4.244,0,0,0,2-4.62A37.42,37.42,0,0,1,223.071,208.076Zm37.38,19.127a19.127,19.127,0,1,0-19.127-19.127A19.128,19.128,0,0,0,260.451,227.2Z" transform="translate(-92.093 -81.953)" fill="url(#linear-gradient-6)"/>
        <path id="Path_4164" data-name="Path 4164" d="M214.432,232.07c14.322,8.507,49.709,17.954,66.563,3.648s17.1-45.752,3.882-63.474c-5.009-6.717-15.016-11.995-21.37-6.534-5.519,4.742-3.469,14.236,1.761,19.295,9.987,9.66,27.018,8.1,38.655.513,37.685-24.582,68.949-53.2,110.761-62.453,51.383-11.376,93.8,14.121,78.166,50.688-7.039,16.456-14.4,33.177-16.5,50.952s5.393,38.69,22.459,44.083c10.857,3.429,22.5-.2,33.566-2.9s23.781-4.163,32.917,2.634c9.386,6.982,12.5,21.456,7.1,31.834-13.5,25.964-83.567,32.15-83.567,67.376" transform="translate(-93.511 -114.617)" fill="none" stroke="#1d325f" stroke-width="1" stroke-dasharray="3"/>
        <g id="Group_1665" data-name="Group 1665" transform="translate(256.435 241.329)">
          <g id="Group_1655" data-name="Group 1655" transform="translate(0 16.057)">
            <rect id="Rectangle_5061" data-name="Rectangle 5061" width="208.948" height="153.788" rx="13.642" transform="translate(0 12.461)" fill="#fff"/>
            <path id="Path_4169" data-name="Path 4169" d="M497.56,271.738V388.144a24.922,24.922,0,0,1-24.921,24.921h-159.1a24.922,24.922,0,0,1-24.921-24.921" transform="translate(-288.613 -246.816)" fill="none" stroke="#00030e" stroke-width="0.25"/>
            <path id="Path_4170" data-name="Path 4170" d="M288.613,283.017A24.921,24.921,0,0,1,313.534,258.1h159.1a24.921,24.921,0,0,1,24.921,24.921Z" transform="translate(-288.613 -258.095)" fill="#027bff"/>
          </g>
          <g id="Group_1660" data-name="Group 1660" transform="translate(29.742 59.527)">
            <g id="Group_1656" data-name="Group 1656">
              <rect id="Rectangle_5062" data-name="Rectangle 5062" width="26.078" height="18.234" rx="1.684" fill="#d0e7ff" opacity="0.995"/>
              <rect id="Rectangle_5063" data-name="Rectangle 5063" width="26.078" height="18.234" rx="1.684" transform="translate(30.846)" fill="#d0e7ff" opacity="0.995"/>
              <rect id="Rectangle_5064" data-name="Rectangle 5064" width="26.078" height="18.234" rx="1.684" transform="translate(61.693)" fill="#d0e7ff" opacity="0.995"/>
              <rect id="Rectangle_5065" data-name="Rectangle 5065" width="26.078" height="18.234" rx="1.684" transform="translate(92.539)" fill="#d0e7ff" opacity="0.995"/>
              <rect id="Rectangle_5066" data-name="Rectangle 5066" width="26.078" height="18.234" rx="1.684" transform="translate(123.385)" fill="#d0e7ff" opacity="0.995"/>
            </g>
            <g id="Group_1657" data-name="Group 1657" transform="translate(0 25.528)">
              <rect id="Rectangle_5067" data-name="Rectangle 5067" width="26.078" height="18.234" rx="1.684" fill="#d0e7ff" opacity="0.995"/>
              <rect id="Rectangle_5068" data-name="Rectangle 5068" width="26.078" height="18.234" rx="1.684" transform="translate(30.846)" fill="#027bff"/>
              <rect id="Rectangle_5069" data-name="Rectangle 5069" width="26.078" height="18.234" rx="1.684" transform="translate(61.693)" fill="#d0e7ff" opacity="0.995"/>
              <rect id="Rectangle_5070" data-name="Rectangle 5070" width="26.078" height="18.234" rx="1.684" transform="translate(92.539)" fill="#d0e7ff" opacity="0.995"/>
              <rect id="Rectangle_5071" data-name="Rectangle 5071" width="26.078" height="18.234" rx="1.684" transform="translate(123.385)" fill="#d0e7ff" opacity="0.995"/>
            </g>
            <g id="Group_1658" data-name="Group 1658" transform="translate(0 51.056)">
              <rect id="Rectangle_5072" data-name="Rectangle 5072" width="26.078" height="18.234" rx="1.684" fill="#d0e7ff" opacity="0.995"/>
              <rect id="Rectangle_5073" data-name="Rectangle 5073" width="26.078" height="18.234" rx="1.684" transform="translate(30.846)" fill="#d0e7ff" opacity="0.995"/>
              <rect id="Rectangle_5074" data-name="Rectangle 5074" width="26.078" height="18.234" rx="1.684" transform="translate(61.693)" fill="#d0e7ff" opacity="0.995"/>
              <rect id="Rectangle_5075" data-name="Rectangle 5075" width="26.078" height="18.234" rx="1.684" transform="translate(92.539)" fill="#027bff"/>
              <rect id="Rectangle_5076" data-name="Rectangle 5076" width="26.078" height="18.234" rx="1.684" transform="translate(123.385)" fill="#d0e7ff" opacity="0.995"/>
            </g>
            <g id="Group_1659" data-name="Group 1659" transform="translate(0 76.584)">
              <rect id="Rectangle_5077" data-name="Rectangle 5077" width="26.078" height="18.234" rx="1.684" fill="#d0e7ff" opacity="0.995"/>
              <rect id="Rectangle_5078" data-name="Rectangle 5078" width="26.078" height="18.234" rx="1.684" transform="translate(30.846)" fill="#d0e7ff" opacity="0.995"/>
              <rect id="Rectangle_5079" data-name="Rectangle 5079" width="26.078" height="18.234" rx="1.684" transform="translate(61.693)" fill="#d0e7ff" opacity="0.995"/>
              <rect id="Rectangle_5080" data-name="Rectangle 5080" width="26.078" height="18.234" rx="1.684" transform="translate(92.539)" fill="#d0e7ff" opacity="0.995"/>
              <rect id="Rectangle_5081" data-name="Rectangle 5081" width="26.078" height="18.234" rx="1.684" transform="translate(123.385)" fill="#d0e7ff" opacity="0.995"/>
            </g>
          </g>
          <g id="Group_1661" data-name="Group 1661" transform="translate(151.616)">
            <path id="Path_4171" data-name="Path 4171" d="M377.8,281.419h0a6.2,6.2,0,0,1-6.2-6.2V255.5a6.2,6.2,0,0,1,6.2-6.2h0a6.2,6.2,0,0,1,6.2,6.2v19.72A6.2,6.2,0,0,1,377.8,281.419Z" transform="translate(-371.608 -249.306)" fill="#027bff" opacity="0.185"/>
            <path id="Path_4172" data-name="Path 4172" d="M384,252.7v19.72a6.2,6.2,0,0,1-6.2,6.2h0a6.2,6.2,0,0,1-6.2-6.2" transform="translate(-371.608 -246.501)" fill="none" stroke="#00030e" stroke-linecap="round" stroke-width="0.25"/>
          </g>
          <g id="Group_1662" data-name="Group 1662" transform="translate(96.191 60.361)">
            <path id="Path_4173" data-name="Path 4173" d="M354.256,298.914h0L343.346,288a4,4,0,0,1,0-5.654h0l10.91,10.912A4,4,0,0,1,354.256,298.914Z" transform="translate(-340.518 -282.348)" fill="#42445d"/>
            <path id="Path_4174" data-name="Path 4174" d="M341.268,295.338h0l10.911-10.911a4,4,0,0,1,5.654,0h0l-10.911,10.911A4,4,0,0,1,341.268,295.338Z" transform="translate(-341.268 -281.598)" fill="#42445d"/>
          </g>
          <g id="Group_1663" data-name="Group 1663" transform="translate(34.498 111.419)">
            <path id="Path_4175" data-name="Path 4175" d="M320.487,326.861h0l-10.912-10.912a4,4,0,0,1,0-5.652h0l10.912,10.91A4,4,0,0,1,320.487,326.861Z" transform="translate(-306.747 -310.297)" fill="#42445d"/>
            <path id="Path_4176" data-name="Path 4176" d="M307.5,323.286h0l10.911-10.912a4,4,0,0,1,5.654,0h0l-10.911,10.912A4,4,0,0,1,307.5,323.286Z" transform="translate(-307.497 -309.548)" fill="#42445d"/>
          </g>
          <g id="Group_1664" data-name="Group 1664" transform="translate(157.884 136.947)">
            <path id="Path_4177" data-name="Path 4177" d="M388.027,340.835h0l-10.912-10.912a4,4,0,0,1,0-5.652h0l10.912,10.911A4,4,0,0,1,388.027,340.835Z" transform="translate(-374.29 -324.271)" fill="#42445d"/>
            <path id="Path_4178" data-name="Path 4178" d="M375.039,337.26h0l10.911-10.912a4,4,0,0,1,5.652,0h0l-10.91,10.912A4,4,0,0,1,375.039,337.26Z" transform="translate(-375.039 -323.522)" fill="#42445d"/>
          </g>
        </g>
        <g id="Group_1667" data-name="Group 1667" transform="translate(135.843 50.535)">
          <circle id="Ellipse_160" data-name="Ellipse 160" cx="116.817" cy="116.817" r="116.817" transform="translate(0 230.493) rotate(-80.594)" fill="#899ba7"/>
          <circle id="Ellipse_161" data-name="Ellipse 161" cx="92.279" cy="92.279" r="92.279" transform="translate(3.836 134.339) rotate(-45)" fill="#fff"/>
          <g id="Group_1666" data-name="Group 1666" transform="translate(48.231 48.231)" opacity="0.246">
            <rect id="Rectangle_5082" data-name="Rectangle 5082" width="10.218" height="14.609" rx="0.973" transform="translate(80.999)" fill="#0e72b7"/>
            <rect id="Rectangle_5083" data-name="Rectangle 5083" width="10.218" height="14.609" rx="0.973" transform="translate(38.63 14.09) rotate(-29.999)" fill="#0e72b7"/>
            <rect id="Rectangle_5084" data-name="Rectangle 5084" width="10.218" height="14.609" rx="0.973" transform="translate(8.982 47.478) rotate(-59.999)" fill="#0e72b7"/>
            <rect id="Rectangle_5085" data-name="Rectangle 5085" width="10.218" height="14.609" rx="0.973" transform="translate(0 91.216) rotate(-90)" fill="#0e72b7"/>
            <rect id="Rectangle_5086" data-name="Rectangle 5086" width="10.218" height="14.609" rx="0.973" transform="translate(14.091 133.586) rotate(-120.001)" fill="#0e72b7"/>
            <rect id="Rectangle_5087" data-name="Rectangle 5087" width="10.218" height="14.609" rx="0.973" transform="translate(47.478 163.233) rotate(-150.001)" fill="#0e72b7"/>
            <rect id="Rectangle_5088" data-name="Rectangle 5088" width="10.218" height="14.609" rx="0.973" transform="translate(91.216 172.215) rotate(180)" fill="#0e72b7"/>
            <rect id="Rectangle_5089" data-name="Rectangle 5089" width="10.218" height="14.609" rx="0.973" transform="translate(133.586 158.125) rotate(150.001)" fill="#0e72b7"/>
            <rect id="Rectangle_5090" data-name="Rectangle 5090" width="10.218" height="14.609" rx="0.973" transform="translate(163.233 124.737) rotate(119.999)" fill="#0e72b7"/>
            <rect id="Rectangle_5091" data-name="Rectangle 5091" width="10.218" height="14.609" rx="0.973" transform="translate(172.215 80.999) rotate(90)" fill="#0e72b7"/>
            <rect id="Rectangle_5092" data-name="Rectangle 5092" width="10.218" height="14.609" rx="0.973" transform="translate(158.125 38.629) rotate(60)" fill="#0e72b7"/>
            <rect id="Rectangle_5093" data-name="Rectangle 5093" width="10.218" height="14.609" rx="0.973" transform="translate(124.737 8.982) rotate(29.999)" fill="#0e72b7"/>
          </g>
          <path id="Path_4179" data-name="Path 4179" d="M296.138,167.888a92.279,92.279,0,0,1,0,184.559" transform="translate(-161.799 -125.829)" fill="none" stroke="#00030e" stroke-width="0.25"/>
          <path id="Path_4180" data-name="Path 4180" d="M296.138,154.456a116.817,116.817,0,1,1,0,233.634" transform="translate(-161.799 -136.935)" fill="none" stroke="#00030e" stroke-width="0.25"/>
          <path id="Path_4181" data-name="Path 4181" d="M300.266,178.54c3.054,14.487,10.491,61.6.13,85.612a1.39,1.39,0,0,1-2.547,0c-10.364-24.01-2.925-71.125.13-85.612A1.168,1.168,0,0,1,300.266,178.54Z" transform="translate(-164.783 -117.79)" fill="#027bff"/>
          <path id="Path_4182" data-name="Path 4182" d="M265.352,219.824c11.187-2.36,51.028-8.1,69.572-.1a1.073,1.073,0,0,1,0,1.966c-18.544,8-58.385,2.26-69.572-.1A.9.9,0,0,1,265.352,219.824Z" transform="translate(-187.847 -86.368)" fill="#027bff"/>
        </g>
        <path id="Path_4217" data-name="Path 4217" d="M189.209,275.3l1.882,5.088a16.8,16.8,0,0,0,9.925,9.925L206.1,292.2l-5.088,1.882a16.806,16.806,0,0,0-9.925,9.925l-1.882,5.088-1.883-5.088a16.8,16.8,0,0,0-9.925-9.925l-5.088-1.882,5.088-1.883a16.8,16.8,0,0,0,9.925-9.925Z" transform="translate(-128.335 13.518)" fill="url(#linear-gradient-7)"/>
        <path id="Path_4220" data-name="Path 4220" d="M255.161,278.168l.532,1.438a4.745,4.745,0,0,0,2.8,2.8l1.436.532-1.436.532a4.74,4.74,0,0,0-2.8,2.8l-.532,1.438-.532-1.438a4.743,4.743,0,0,0-2.8-2.8l-1.436-.532,1.436-.532a4.748,4.748,0,0,0,2.8-2.8Z" transform="translate(-63.781 15.886)" fill="url(#linear-gradient-7)"/>
        <path id="Path_4222" data-name="Path 4222" d="M174.473,264.724,175,266.16a4.748,4.748,0,0,0,2.8,2.8l1.438.53-1.438.533a4.736,4.736,0,0,0-2.8,2.8l-.532,1.436-.532-1.436a4.736,4.736,0,0,0-2.8-2.8l-1.438-.533,1.438-.53a4.748,4.748,0,0,0,2.8-2.8Z" transform="translate(-130.495 4.771)" fill="url(#linear-gradient-7)"/>
      </g>
    </g>
    <g id="Group_1724" data-name="Group 1724" transform="translate(35.482 213.16)">
      <g id="Shadow">
        <ellipse id="_Path_" data-name="&lt;Path&gt;" cx="117.586" cy="11.323" rx="117.586" ry="11.323" transform="translate(51.289 401.068)" fill="#f5f5f5"/>
      </g>
      <g id="Character_1" data-name="Character 1">
        <g id="Group_1694" data-name="Group 1694">
          <g id="Group_1693" data-name="Group 1693">
            <g id="Group_1687" data-name="Group 1687">
              <g id="Group_1677" data-name="Group 1677">
                <path id="Path_4230" data-name="Path 4230" d="M118.6,411.822,93.4,402.54l-25.48,9.289a1.349,1.349,0,0,1-1.811-1.267h0a1.349,1.349,0,0,1,.781-1.223l26.51-12.3,26.244,12.3a1.347,1.347,0,0,1,.775,1.22h0A1.347,1.347,0,0,1,118.6,411.822Z" fill="#263238"/>
                <path id="Path_4231" data-name="Path 4231" d="M118.6,411.822,93.4,402.54l-25.48,9.289a1.349,1.349,0,0,1-1.811-1.267h0a1.349,1.349,0,0,1,.781-1.223l26.51-12.3,26.244,12.3a1.347,1.347,0,0,1,.775,1.22h0A1.347,1.347,0,0,1,118.6,411.822Z" fill="#fff" opacity="0.3"/>
                <path id="Path_4232" data-name="Path 4232" d="M87.458,404.705l5.94-2.166,5.668,2.087v-4.932L93.4,397.038l-5.94,2.756Z" opacity="0.2"/>
                <path id="Path_4233" data-name="Path 4233" d="M93.261,412.037h0a2.238,2.238,0,0,1-2.228-2.026l-.711-7.472V340.522H96.2v62.017l-.712,7.472A2.238,2.238,0,0,1,93.261,412.037Z" fill="#263238"/>
                <path id="Path_4234" data-name="Path 4234" d="M93.261,412.037h0a2.238,2.238,0,0,1-2.228-2.026l-.711-7.472V340.522H96.2v62.017l-.712,7.472A2.238,2.238,0,0,1,93.261,412.037Z" fill="#fff" opacity="0.3"/>
                <rect id="Rectangle_5094" data-name="Rectangle 5094" width="5.879" height="7.222" transform="translate(90.322 340.522)" opacity="0.2"/>
              </g>
              <g id="Group_1686" data-name="Group 1686">
                <g id="Group_1678" data-name="Group 1678">
                  <path id="Path_4235" data-name="Path 4235" d="M80.076,276.629a2.5,2.5,0,0,1,2.248,1.3A86.872,86.872,0,0,1,93.2,337.891a2.2,2.2,0,0,1-2.092,1.954c-1.629.111-30.646.008-31.7.006a2.921,2.921,0,0,1-2.949-3.4,81.1,81.1,0,0,0-10.331-55.786,2.7,2.7,0,0,1,2.438-4.034C49.411,276.612,78.227,276.664,80.076,276.629Z" fill="#0e72b7"/>
                  <path id="Path_4236" data-name="Path 4236" d="M80.076,276.629a2.5,2.5,0,0,1,2.248,1.3A86.872,86.872,0,0,1,93.2,337.891a2.2,2.2,0,0,1-2.092,1.954c-1.629.111-30.646.008-31.7.006a2.921,2.921,0,0,1-2.949-3.4,81.1,81.1,0,0,0-10.331-55.786,2.7,2.7,0,0,1,2.438-4.034C49.411,276.612,78.227,276.664,80.076,276.629Z" opacity="0.2"/>
                </g>
                <g id="Group_1681" data-name="Group 1681">
                  <g id="Group_1679" data-name="Group 1679">
                    <path id="Path_4237" data-name="Path 4237" d="M56.463,336.449a81.1,81.1,0,0,0-10.331-55.786c-1.805-3,2.886-5.732,4.686-2.739A86.878,86.878,0,0,1,61.7,337.891c-.621,3.432-5.852,1.978-5.233-1.442Z" fill="#407bff"/>
                  </g>
                  <g id="Group_1680" data-name="Group 1680" opacity="0.1">
                    <path id="Path_4238" data-name="Path 4238" d="M56.463,336.449a81.1,81.1,0,0,0-10.331-55.786c-1.805-3,2.886-5.732,4.686-2.739A86.878,86.878,0,0,1,61.7,337.891c-.621,3.432-5.852,1.978-5.233-1.442Z" fill="#0e72b7"/>
                  </g>
                </g>
                <g id="Group_1685" data-name="Group 1685">
                  <g id="Group_1682" data-name="Group 1682">
                    <path id="Path_4239" data-name="Path 4239" d="M146.946,334.877a91.694,91.694,0,0,0-20.34-2.8c-7.063-.177-33.5-.026-39.779-.028a91.794,91.794,0,0,0-22.7,2.829c-4.661,1.189-3.224,7.916.986,7.993.372.007,80.292-.017,80.586,0C150.1,343.067,151.709,336.092,146.946,334.877Z" fill="#407bff"/>
                    <path id="Path_4240" data-name="Path 4240" d="M146.946,334.877a91.694,91.694,0,0,0-20.34-2.8c-7.063-.177-33.5-.026-39.779-.028a91.794,91.794,0,0,0-22.7,2.829c-4.661,1.189-3.224,7.916.986,7.993.372.007,80.292-.017,80.586,0C150.1,343.067,151.709,336.092,146.946,334.877Z" opacity="0.3"/>
                  </g>
                  <g id="Group_1683" data-name="Group 1683">
                    <path id="Path_4241" data-name="Path 4241" d="M66.291,342.727a83.392,83.392,0,0,1,41.071,0c5.079,1.3,7.245-6.554,2.164-7.85a92.27,92.27,0,0,0-45.4,0c-5.073,1.294-2.923,9.147,2.164,7.85Z" fill="#407bff"/>
                  </g>
                  <g id="Group_1684" data-name="Group 1684" opacity="0.3">
                    <path id="Path_4242" data-name="Path 4242" d="M66.291,342.727a83.392,83.392,0,0,1,41.071,0c5.079,1.3,7.245-6.554,2.164-7.85a92.27,92.27,0,0,0-45.4,0c-5.073,1.294-2.923,9.147,2.164,7.85Z" fill="#0e72b7"/>
                  </g>
                </g>
              </g>
            </g>
            <g id="Group_1692" data-name="Group 1692">
              <g id="Group_1688" data-name="Group 1688">
                <path id="Path_4243" data-name="Path 4243" d="M139.855,292.377l9.2-.389,2.749-1.76a2.811,2.811,0,0,1,2.194-.359l1.967.492a2.807,2.807,0,0,0,2.811-.895h0a2.806,2.806,0,0,0-.792-4.293l-2.986-1.62a2.806,2.806,0,0,0-3.008.211l-4.834,3.58-7.3-.515Z" fill="#ebb376"/>
                <path id="Path_4244" data-name="Path 4244" d="M129.906,256.759l-3.174,28.026,17.89,1.272-.79,6.429s-18.089,3.166-24.722,1.357,2.2-32.109,2.2-32.109Z" fill="#407bff"/>
                <path id="Path_4245" data-name="Path 4245" d="M129.906,256.759l-3.174,28.026,17.89,1.272-.79,6.429s-18.089,3.166-24.722,1.357,2.2-32.109,2.2-32.109Z" fill="#4484f5"/>
                <path id="Path_4246" data-name="Path 4246" d="M124.17,291.3c-4.669-2.429,1.6-25.743,3.807-33.425l-6.664,3.858s-8.836,30.3-2.2,32.109c4.077,1.112,12.48.344,18.352-.413C133.461,293.433,127.611,293.091,124.17,291.3Z" opacity="0.168"/>
              </g>
              <g id="Group_1689" data-name="Group 1689">
                <path id="Path_4247" data-name="Path 4247" d="M114.078,311.48a157.24,157.24,0,0,1-40.1,2.262s3.083-35.848,14-55.469a13.972,13.972,0,0,1,8.061-6.533c7.841-2.443,20.455-4.629,33.871,5.019C129.906,256.759,123.122,269.422,114.078,311.48Z" fill="#407bff"/>
                <path id="Path_4248" data-name="Path 4248" d="M114.078,311.48a157.24,157.24,0,0,1-40.1,2.262s3.083-35.848,14-55.469a13.972,13.972,0,0,1,8.061-6.533c7.841-2.443,20.455-4.629,33.871,5.019C129.906,256.759,123.122,269.422,114.078,311.48Z" fill="#147bff" opacity="0.4"/>
              </g>
              <path id="Path_4249" data-name="Path 4249" d="M120.6,265.691a1.076,1.076,0,1,1-1.076-1.076A1.076,1.076,0,0,1,120.6,265.691Z" fill="#407bff"/>
              <path id="Path_4250" data-name="Path 4250" d="M116.795,276.7a1.076,1.076,0,1,1-1.076-1.076A1.076,1.076,0,0,1,116.795,276.7Z" fill="#407bff"/>
              <circle id="Ellipse_162" data-name="Ellipse 162" cx="1.076" cy="1.076" r="1.076" transform="translate(111.192 290.225)" fill="#407bff"/>
              <path id="Path_4251" data-name="Path 4251" d="M110.507,303.453a1.077,1.077,0,1,1-1.076-1.076A1.076,1.076,0,0,1,110.507,303.453Z" fill="#407bff"/>
              <path id="Path_4252" data-name="Path 4252" d="M121.93,279.549v0l-13.575,3.063-10.708-2.937-4.221-12.06-.9-6.784H89.506s-2.864,21.6,6.934,30.472c6.11,5.533,16.088,1.93,22.735-1.566C120.143,285.966,121.064,282.578,121.93,279.549Z" opacity="0.181"/>
              <path id="Path_4253" data-name="Path 4253" d="M130.723,376.683l-4.709,20.509,5.845,2.263,8.422-20.628Z" fill="#ebb376"/>
              <path id="Path_4254" data-name="Path 4254" d="M131.519,398.115l-5.313-2.841a.561.561,0,0,0-.689.126l-3.792,4.389a.933.933,0,0,0,.086,1.315.909.909,0,0,0,.162.114c2.23,1.151,4.259,2.088,7.007,3.572,3.245,1.748,2.213,1.693,6,3.8,2.283,1.268,4.111-1.119,3.205-1.772-4.159-2.964-4.713-5.019-5.574-7.543A2.242,2.242,0,0,0,131.519,398.115Z" fill="#263238"/>
              <path id="Path_4255" data-name="Path 4255" d="M83.325,313.062l28.718-1.582s47.711,7.462,47.033,20.8-20.125,55.4-20.125,55.4l-11.386-3.166s8.672-42.284,14.325-49.294c0,0-35.63-4.18-44.545-6.557C92.438,327.357,80.612,329.568,83.325,313.062Z" fill="#263238"/>
              <path id="Path_4256" data-name="Path 4256" d="M137.07,334.642a25.524,25.524,0,0,0-2.189-11.516c-2.654-5.993-24.495-9.587-34.944-10.979l-16.612.915c-2.713,16.506,9.113,14.295,14.02,15.6C104.227,330.5,127.029,333.41,137.07,334.642Z" opacity="0.2"/>
              <path id="Path_4257" data-name="Path 4257" d="M111.213,382.332l-.754,21.029,6.331.3L121,382.633Z" fill="#ebb376"/>
              <path id="Path_4258" data-name="Path 4258" d="M116.337,401.75l-6.133.13a.571.571,0,0,0-.549.456l-1.175,5.788a.949.949,0,0,0,.732,1.124,1.036,1.036,0,0,0,.2.02c2.554-.091,4.823-.272,8-.326,3.753-.067,2.809.4,7.222.381,2.659-.013,3.09-3.044,1.96-3.172-5.17-.555-6.688-2.1-8.711-3.914A2.294,2.294,0,0,0,116.337,401.75Z" fill="#263238"/>
              <path id="Path_4259" data-name="Path 4259" d="M91.013,313.063s38.441,1.357,40.7,13.115-10.628,64.445-10.628,64.445H109.555s1.357-47.26,5.2-57.209c0,0-31.657,4.975-40.023-2.21-5.98-5.135,1.13-18.143,1.13-18.143Z" fill="#263238"/>
              <path id="Path_4260" data-name="Path 4260" d="M126.661,382.03l14.325,3.995-2.619,5.508-13.058-3.246Z" fill="#263238"/>
              <path id="Path_4261" data-name="Path 4261" d="M126.661,382.03l14.325,3.995-2.619,5.508-13.058-3.246Z" opacity="0.3"/>
              <path id="Path_4262" data-name="Path 4262" d="M125.987,275.6l11.456-3.769,7.332,3.273a2.317,2.317,0,0,1,1.333,1.691l.775,4.173a2.315,2.315,0,0,1-2.276,2.739h0a2.318,2.318,0,0,1-1.474-.53l-6.443-5.316L126.661,281.9Z" fill="#ebb376"/>
              <g id="Group_1690" data-name="Group 1690">
                <path id="Path_4263" data-name="Path 4263" d="M108.424,387.683l14.472.678-1.357,5.766-13.115-.678Z" fill="#263238"/>
                <path id="Path_4264" data-name="Path 4264" d="M108.424,387.683l14.472.678-1.357,5.766-13.115-.678Z" opacity="0.3"/>
              </g>
              <g id="Group_1691" data-name="Group 1691">
                <path id="Path_4265" data-name="Path 4265" d="M90.26,256.759c2.232-3.343,5.775-6.828,14.773,22.612l26.948-6.633.789,7.354s-22.009,11.791-30.828,10.133S84.127,265.942,90.26,256.759Z" fill="#407bff"/>
                <path id="Path_4266" data-name="Path 4266" d="M90.26,256.759c2.232-3.343,5.775-6.828,14.773,22.612l26.948-6.633.789,7.354s-22.009,11.791-30.828,10.133S84.127,265.942,90.26,256.759Z" fill="#4484f5"/>
              </g>
              <path id="Path_4267" data-name="Path 4267" d="M118.445,246.508l-5.1,4.789s1.985,6.212,7.088,6.212,2.011-7.858,2.011-7.858Z" fill="#ebb376"/>
              <path id="Path_4268" data-name="Path 4268" d="M121.146,261.112l2.487-1.3,1.045-1.583-.438-4.9a34.45,34.45,0,0,0-13.138-3.6l-.188,2.276,2.77,8.029,3.222,1.074Z" fill="#ebb376"/>
              <path id="Path_4269" data-name="Path 4269" d="M122.444,249.651l-4-3.143-.673.633c-.393,2.335-.842,7.2,1.749,9.109a3.22,3.22,0,0,0,2.9.6C124.529,254.971,122.444,249.651,122.444,249.651Z" opacity="0.1"/>
              <path id="Path_4270" data-name="Path 4270" d="M119.731,261.734l3.844,2.035c2.7-3.212,2.026-7.709,1.406-10.063q-.678-.355-1.352-.675c.509,3.551.1,7.45-4.124,7.572-6.638.193-7.628-8.287-7.775-10.822q-.723-.062-1.43-.092c-2.105,9.386,3.778,14.08,3.778,14.08Z" fill="#407bff"/>
              <path id="Path_4271" data-name="Path 4271" d="M119.731,261.734l3.844,2.035c2.7-3.212,2.026-7.709,1.406-10.063q-.678-.355-1.352-.675c.509,3.551.1,7.45-4.124,7.572-6.638.193-7.628-8.287-7.775-10.822q-.723-.062-1.43-.092c-2.105,9.386,3.778,14.08,3.778,14.08Z" fill="#fff" opacity="0.2"/>
              <path id="Path_4272" data-name="Path 4272" d="M136.133,234.631c3.656,2.367,2.573,8.309-1.239,10.753C133.808,238.577,136.133,234.631,136.133,234.631Z" fill="#263238"/>
              <path id="Path_4273" data-name="Path 4273" d="M136.133,234.631c3.656,2.367,2.573,8.309-1.239,10.753C133.808,238.577,136.133,234.631,136.133,234.631Z" opacity="0.4"/>
              <path id="Path_4274" data-name="Path 4274" d="M119.37,238.537c-1.371,6.263-2.5,9.846-.327,13.986a8.33,8.33,0,0,0,14.753.172c2.881-5.092,4.646-14.478-.6-18.838a8.427,8.427,0,0,0-13.823,4.68Z" fill="#ebb376"/>
              <path id="Path_4275" data-name="Path 4275" d="M118.71,244.385c3.346,1.714,5.5-4.156,5.037-6.987,4.353,2.978,14.131,2.547,16.993-1.43,3.127-4.346-1.569-8.026-5.815-9.352a2.087,2.087,0,0,0-2.59,1.653.826.826,0,0,1-.306.489,17.253,17.253,0,0,0-2.913-2.05,3.808,3.808,0,0,0-4.428.78c-.493.45-1.7.545-4.121-.272-5.02-1.7-5.865,3.766-3.428,4.822-2.208,1.347-5.863,5.063-3.894,8.324s3.662,7.565,2.556,8.279C116.822,249.083,118.627,247.988,118.71,244.385Z" fill="#263238"/>
              <path id="Path_4276" data-name="Path 4276" d="M115.584,242.981a5.681,5.681,0,0,0,1.587,3.835c1.313,1.338,2.82.33,3.158-1.433.306-1.6-.014-4.209-1.675-4.876S115.566,241.21,115.584,242.981Z" fill="#ebb376"/>
              <path id="Path_4277" data-name="Path 4277" d="M128.094,243.234c-.147.5.007.984.339,1.061s.7-.216.844-.712,0-.991-.346-1.065S128.234,242.734,128.094,243.234Z" fill="#263238"/>
              <path id="Path_4278" data-name="Path 4278" d="M133.682,245.039c-.147.5,0,.98.339,1.061s.7-.215.847-.719-.006-.984-.346-1.065S133.826,244.532,133.682,245.039Z" fill="#263238"/>
              <path id="Path_4279" data-name="Path 4279" d="M131.832,244.713a19.644,19.644,0,0,0,1.137,5.041,3.005,3.005,0,0,1-2.5-.292Z" fill="#d58745"/>
              <path id="Path_4280" data-name="Path 4280" d="M126.885,240.849a.311.311,0,0,1-.132-.063.3.3,0,0,1,.051-.422l.01-.008a2.956,2.956,0,0,1,2.737-.493.3.3,0,0,1,.174.388l0,.009a.3.3,0,0,1-.387.174l-.009,0a2.352,2.352,0,0,0-2.132.377A.287.287,0,0,1,126.885,240.849Z" fill="#263238"/>
              <path id="Path_4281" data-name="Path 4281" d="M136.635,243.867a.292.292,0,0,1-.171-.226,2.551,2.551,0,0,0-1.269-1.865.308.308,0,0,1,.263-.549h0a3.134,3.134,0,0,1,1.6,2.309.3.3,0,0,1-.243.349h-.005A.271.271,0,0,1,136.635,243.867Z" fill="#263238"/>
              <path id="Path_4282" data-name="Path 4282" d="M127.652,251.123a5.156,5.156,0,0,0,.851.172.171.171,0,0,0,.2-.14v-.006a.181.181,0,0,0-.159-.19,4.674,4.674,0,0,1-3.535-2.283.173.173,0,0,0-.311.15A4.811,4.811,0,0,0,127.652,251.123Z" fill="#263238"/>
            </g>
          </g>
          <path id="Path_4283" data-name="Path 4283" d="M117.944,232.269A4.073,4.073,0,0,1,115,229.4a.688.688,0,0,0-1.271-.076C112.868,231.128,112.482,233.628,117.944,232.269Z" fill="#2e353a"/>
        </g>
        <g id="Group_1701" data-name="Group 1701">
          <g id="Group_1698" data-name="Group 1698">
            <g id="Group_1696" data-name="Group 1696">
              <path id="Path_4284" data-name="Path 4284" d="M160.2,239.921h-2.868a5.009,5.009,0,0,0-4.891,4.492l-2.489,28.014a4.044,4.044,0,0,0,4.094,4.492h2.867Z" fill="#407bff"/>
              <path id="Path_4285" data-name="Path 4285" d="M160.2,239.921h-2.868a5.009,5.009,0,0,0-4.891,4.492l-2.489,28.014a4.044,4.044,0,0,0,4.094,4.492h2.867Z" fill="#fff" opacity="0.3"/>
              <g id="Group_1695" data-name="Group 1695">
                <path id="Path_4286" data-name="Path 4286" d="M202.783,276.919H156a4.044,4.044,0,0,1-4.093-4.492l2.489-28.014a5.009,5.009,0,0,1,4.891-4.492H206.07a4.044,4.044,0,0,1,4.093,4.492l-2.489,28.014A5.009,5.009,0,0,1,202.783,276.919Z" fill="#407bff"/>
                <path id="Path_4287" data-name="Path 4287" d="M202.783,276.919H156a4.044,4.044,0,0,1-4.093-4.492l2.489-28.014a5.009,5.009,0,0,1,4.891-4.492H206.07a4.044,4.044,0,0,1,4.093,4.492l-2.489,28.014A5.009,5.009,0,0,1,202.783,276.919Z" opacity="0.2"/>
                <path id="Path_4288" data-name="Path 4288" d="M181.863,255.707a2.712,2.712,0,0,1,.1-.69,3.533,3.533,0,1,0,2.614,3.4A2.713,2.713,0,0,1,181.863,255.707Z" fill="#fff" opacity="0.5"/>
              </g>
            </g>
            <path id="Path_4289" data-name="Path 4289" d="M178.9,290.354h3.6l-1.425-16.285a1.793,1.793,0,0,0-1.786-1.637h0a1.792,1.792,0,0,0-1.786,1.949Z" fill="#263238"/>
            <path id="Path_4290" data-name="Path 4290" d="M178.9,290.354h3.6l-1.425-16.285a1.793,1.793,0,0,0-1.786-1.637h0a1.792,1.792,0,0,0-1.786,1.949Z" fill="#fff" opacity="0.3"/>
            <g id="Group_1697" data-name="Group 1697">
              <path id="Path_4291" data-name="Path 4291" d="M190.268,295.076a9.444,9.444,0,0,0-18.888,0Z" fill="#407bff"/>
              <path id="Path_4292" data-name="Path 4292" d="M190.268,295.076a9.444,9.444,0,0,0-18.888,0Z" fill="#fff" opacity="0.5"/>
            </g>
          </g>
          <g id="Group_1700" data-name="Group 1700">
            <path id="Path_4293" data-name="Path 4293" d="M168.078,295.076H153.162a1.783,1.783,0,0,1-1.783-1.783h0a1.783,1.783,0,0,1,1.783-1.783h14.916a1.783,1.783,0,0,1,1.783,1.783h0A1.783,1.783,0,0,1,168.078,295.076Z" fill="#407bff"/>
            <path id="Path_4294" data-name="Path 4294" d="M168.078,295.076H153.162a1.783,1.783,0,0,1-1.783-1.783h0a1.783,1.783,0,0,1,1.783-1.783h14.916a1.783,1.783,0,0,1,1.783,1.783h0A1.783,1.783,0,0,1,168.078,295.076Z" fill="#fff" opacity="0.3"/>
            <g id="Group_1699" data-name="Group 1699">
              <path id="Path_4295" data-name="Path 4295" d="M154.084,295.076H139.169a1.783,1.783,0,0,1-1.783-1.783h0a1.783,1.783,0,0,1,1.783-1.783h14.915a1.783,1.783,0,0,1,1.783,1.783h0A1.783,1.783,0,0,1,154.084,295.076Z" fill="#407bff"/>
              <path id="Path_4296" data-name="Path 4296" d="M154.084,295.076H139.169a1.783,1.783,0,0,1-1.783-1.783h0a1.783,1.783,0,0,1,1.783-1.783h14.915a1.783,1.783,0,0,1,1.783,1.783h0A1.783,1.783,0,0,1,154.084,295.076Z" fill="#fff" opacity="0.5"/>
            </g>
          </g>
        </g>
      </g>
      <g id="Character_2" data-name="Character 2">
        <g id="Group_1716" data-name="Group 1716">
          <g id="Group_1711" data-name="Group 1711">
            <g id="Group_1702" data-name="Group 1702">
              <path id="Path_4297" data-name="Path 4297" d="M278.906,276.845a2.5,2.5,0,0,0-2.247,1.3,86.873,86.873,0,0,0-10.879,59.967,2.2,2.2,0,0,0,2.092,1.953c1.63.112,30.646.009,31.7.007a2.923,2.923,0,0,0,2.95-3.4,81.088,81.088,0,0,1,10.331-55.785,2.7,2.7,0,0,0-2.439-4.035C309.572,276.829,280.756,276.881,278.906,276.845Z" fill="#0e72b7"/>
              <path id="Path_4298" data-name="Path 4298" d="M278.906,276.845a2.5,2.5,0,0,0-2.247,1.3,86.873,86.873,0,0,0-10.879,59.967,2.2,2.2,0,0,0,2.092,1.953c1.63.112,30.646.009,31.7.007a2.923,2.923,0,0,0,2.95-3.4,81.088,81.088,0,0,1,10.331-55.785,2.7,2.7,0,0,0-2.439-4.035C309.572,276.829,280.756,276.881,278.906,276.845Z" opacity="0.087"/>
            </g>
            <g id="Group_1705" data-name="Group 1705">
              <g id="Group_1703" data-name="Group 1703">
                <path id="Path_4299" data-name="Path 4299" d="M302.52,336.665a81.089,81.089,0,0,1,10.331-55.785c1.8-3-2.887-5.732-4.686-2.739a86.873,86.873,0,0,0-10.878,59.967c.62,3.432,5.852,1.978,5.233-1.443Z" fill="#407bff"/>
              </g>
              <g id="Group_1704" data-name="Group 1704" opacity="0.2">
                <path id="Path_4300" data-name="Path 4300" d="M302.52,336.665a81.089,81.089,0,0,1,10.331-55.785c1.8-3-2.887-5.732-4.686-2.739a86.873,86.873,0,0,0-10.878,59.967c.62,3.432,5.852,1.978,5.233-1.443Z" fill="#0e72b7"/>
              </g>
            </g>
            <g id="Group_1706" data-name="Group 1706">
              <path id="Path_4301" data-name="Path 4301" d="M284.732,412.039l-25.206-9.282-25.481,9.289a1.348,1.348,0,0,1-1.81-1.267h0a1.349,1.349,0,0,1,.781-1.223l26.51-12.3,26.243,12.3a1.347,1.347,0,0,1,.776,1.219h0A1.348,1.348,0,0,1,284.732,412.039Z" fill="#263238"/>
              <path id="Path_4302" data-name="Path 4302" d="M284.732,412.039l-25.206-9.282-25.481,9.289a1.348,1.348,0,0,1-1.81-1.267h0a1.349,1.349,0,0,1,.781-1.223l26.51-12.3,26.243,12.3a1.347,1.347,0,0,1,.776,1.219h0A1.348,1.348,0,0,1,284.732,412.039Z" fill="#fff" opacity="0.3"/>
              <path id="Path_4303" data-name="Path 4303" d="M253.586,404.922l5.94-2.165,5.668,2.087v-4.932l-5.668-2.656-5.94,2.756Z" opacity="0.2"/>
              <path id="Path_4304" data-name="Path 4304" d="M259.39,412.254h0a2.238,2.238,0,0,1-2.228-2.026l-.712-7.472V340.739h5.879v62.017l-.711,7.472A2.238,2.238,0,0,1,259.39,412.254Z" fill="#263238"/>
              <path id="Path_4305" data-name="Path 4305" d="M259.39,412.254h0a2.238,2.238,0,0,1-2.228-2.026l-.712-7.472V340.739h5.879v62.017l-.711,7.472A2.238,2.238,0,0,1,259.39,412.254Z" fill="#fff" opacity="0.3"/>
              <rect id="Rectangle_5095" data-name="Rectangle 5095" width="5.879" height="7.222" transform="translate(256.45 340.739)" opacity="0.2"/>
            </g>
            <g id="Group_1710" data-name="Group 1710">
              <g id="Group_1707" data-name="Group 1707">
                <path id="Path_4306" data-name="Path 4306" d="M212.941,335.094a91.7,91.7,0,0,1,20.34-2.8c7.063-.177,33.5-.026,39.779-.029a91.8,91.8,0,0,1,22.7,2.83c4.661,1.189,3.224,7.915-.986,7.993-.372.007-80.292-.017-80.586,0C209.784,343.283,208.178,336.309,212.941,335.094Z" fill="#407bff"/>
                <path id="Path_4307" data-name="Path 4307" d="M212.941,335.094a91.7,91.7,0,0,1,20.34-2.8c7.063-.177,33.5-.026,39.779-.029a91.8,91.8,0,0,1,22.7,2.83c4.661,1.189,3.224,7.915-.986,7.993-.372.007-80.292-.017-80.586,0C209.784,343.283,208.178,336.309,212.941,335.094Z" opacity="0.3"/>
              </g>
              <g id="Group_1708" data-name="Group 1708">
                <path id="Path_4308" data-name="Path 4308" d="M293.6,342.944a83.392,83.392,0,0,0-41.071,0c-5.079,1.3-7.245-6.554-2.164-7.85a92.27,92.27,0,0,1,45.4,0c5.073,1.294,2.923,9.147-2.164,7.85Z" fill="#407bff"/>
              </g>
              <g id="Group_1709" data-name="Group 1709" opacity="0.3">
                <path id="Path_4309" data-name="Path 4309" d="M293.6,342.944a83.392,83.392,0,0,0-41.071,0c-5.079,1.3-7.245-6.554-2.164-7.85a92.27,92.27,0,0,1,45.4,0c5.073,1.294,2.923,9.147-2.164,7.85Z" fill="#0e72b7"/>
              </g>
            </g>
          </g>
          <g id="Group_1715" data-name="Group 1715">
            <path id="Path_4310" data-name="Path 4310" d="M254.838,243.52s-4.915-.477-3.389-7.785,1.4-14.251,12.259-13.465c0,0,8.6-2.153,11.032,5.93s6.042,13.814.282,16.189c-7.2,2.969-9.02-3.639-9.02-3.639l-10.533,1.021Z" fill="#263238"/>
            <path id="Path_4311" data-name="Path 4311" d="M253.227,254.224c-6.276-.9-3.193,20.819-8.818,24.725-3.087,2.143-18.631-3.611-18.631-3.611l-2.19-7.011a1.256,1.256,0,0,0-.731-.795l-3.236-1.287a1.25,1.25,0,0,0-1.657,1.465l1.166,5.173a1.288,1.288,0,0,0,.315.594l4.51,4.789s18.534,8.989,23.054,7.5c5.238-1.729,7.181-11.269,8.48-16.955C256.456,264.572,257.976,254.9,253.227,254.224Z" fill="#b97964"/>
            <path id="Path_4312" data-name="Path 4312" d="M245.994,384.068l1.882,14.61-5.313.138-3.837-14.094Z" fill="#b97964"/>
            <g id="Group_1712" data-name="Group 1712">
              <path id="Path_4313" data-name="Path 4313" d="M242.495,398.006l6.065.018a.562.562,0,0,1,.547.44l1.245,5.674a.933.933,0,0,1-.7,1.116.875.875,0,0,1-.2.023c-2.512-.05-4.746-.194-7.874-.2-3.692-.009-2.756.435-7.1.485-2.615.028-3.085-2.945-1.976-3.089,5.076-.625,6.512-2.156,8.474-3.968A2.248,2.248,0,0,1,242.495,398.006Z" fill="#263238"/>
            </g>
            <path id="Path_4314" data-name="Path 4314" d="M240.951,392.9l-2.226-8.175,7.268-.655,1.088,8.446Z" opacity="0.1"/>
            <path id="Path_4315" data-name="Path 4315" d="M264.3,296.365h-8.583A47.67,47.67,0,0,0,253,308.319c-.452,6.105,11.3,1.583,11.3,1.583l1.027-8.367Z" fill="#263238"/>
            <path id="Path_4316" data-name="Path 4316" d="M209.586,363.832l-5.653,16.507-4.749-1.357,3.844-17.411Z" fill="#b97964"/>
            <g id="Group_1713" data-name="Group 1713">
              <path id="Path_4317" data-name="Path 4317" d="M199.268,377.714l5.839,1.761a.562.562,0,0,1,.42.563l-.215,5.8a.932.932,0,0,1-1.156.878c-2.42-.677-4.547-1.375-7.574-2.162-3.572-.932-2.778-.268-6.992-1.3-2.539-.627-2.251-3.624-1.141-3.485,5.071.664,6.873-.685,9.226-1.948A2.242,2.242,0,0,1,199.268,377.714Z" fill="#263238"/>
            </g>
            <path id="Path_4318" data-name="Path 4318" d="M206.5,372.831l-5.642-1.447,2.167-9.814,6.557,2.261Z" opacity="0.1"/>
            <path id="Path_4319" data-name="Path 4319" d="M281.417,295.581s8.743,14.622,7.236,26.833-12.8,18.669-56.218-2.134c0,0-8.9,9.219-23.678,48.715l-7.537-2.261s8.517-45.654,16.129-58.641c7.689-13.115,41.456,2.261,44.019-.3,2.281-2.281.3-11.306.3-11.306Z" fill="#263238"/>
            <path id="Path_4320" data-name="Path 4320" d="M210.6,368.241l-1.583,3.053-9.045-3.053v-3.5Z" fill="#407bff"/>
            <path id="Path_4321" data-name="Path 4321" d="M284.939,256.5l-30.756-2.3a3.02,3.02,0,0,0-3.234,3.285,36.5,36.5,0,0,1,.523,5.162c-.271,3.261-2.025,8.143-1.44,10.366.468,1.782,2.342,3.807,3.082,5.812,1.6,4.347,1.871,18.442,1.871,18.442,9.949,1.613,27.638-.785,27.638-.785-3.969-14.308,1.964-31.037,3.782-37.933A1.638,1.638,0,0,0,284.939,256.5Z" fill="#407bff"/>
            <path id="Path_4322" data-name="Path 4322" d="M284.939,256.5l-30.756-2.3a3.02,3.02,0,0,0-3.234,3.285,36.5,36.5,0,0,1,.523,5.162c-.271,3.261-2.025,8.143-1.44,10.366.468,1.782,2.342,3.807,3.082,5.812,1.6,4.347,1.871,18.442,1.871,18.442,9.949,1.613,27.638-.785,27.638-.785-3.969-14.308,1.964-31.037,3.782-37.933A1.638,1.638,0,0,0,284.939,256.5Z" fill="#027bff" opacity="0.7"/>
            <path id="Path_4323" data-name="Path 4323" d="M280.359,273.4l-10.628,10.882-15.15,3.053-.1.024c.14,1.677.242,3.352.318,4.839,4.2-.007,17.887-.3,21.831-3.733a22.794,22.794,0,0,0,4.813-6.657,70.415,70.415,0,0,1,.944-7.287Z" opacity="0.1"/>
            <path id="Path_4324" data-name="Path 4324" d="M227.481,324.377l-2.375-1.836s-8.369,4.53-4.2,17.429h0a150.611,150.611,0,0,1,7.389-13.814Z" opacity="0.2"/>
            <path id="Path_4325" data-name="Path 4325" d="M263.743,332.288c-7.89-1.889-18.106-5.682-31.308-12.008,0,0-10.186.136-10.865,7.712s17.186,59.961,17.186,59.961l8.253-.718s-4.862-52.234-5.992-54.947Z" fill="#263238"/>
            <path id="Path_4326" data-name="Path 4326" d="M232.435,320.28a17.282,17.282,0,0,0-3.491.5,73.251,73.251,0,0,0,18.411,11.508h16.388C255.853,330.4,245.637,326.606,232.435,320.28Z" opacity="0.2"/>
            <path id="Path_4327" data-name="Path 4327" d="M248,385.881l.222,3.39-9.607.755-1.367-3.227Z" fill="#407bff"/>
            <path id="Path_4328" data-name="Path 4328" d="M270.421,242.179l-6.713,6.6c1.127,5.42-2.851,5.928-2.851,5.928s.321,1.906,5.187,1.646a30.071,30.071,0,0,0,6.457-.776C269.575,253.232,269.992,246.1,270.421,242.179Z" fill="#b97964"/>
            <path id="Path_4329" data-name="Path 4329" d="M263.769,251.826a7.133,7.133,0,0,0-.061-3.052l5.989-5.884.588.681S269.08,251.067,263.769,251.826Z" opacity="0.1"/>
            <path id="Path_4330" data-name="Path 4330" d="M270.981,233.448c.49,6.466.839,9.191-1.943,12.926-4.185,5.622-12.229,4.814-14.646-1.373-2.173-5.569-2.613-15.2,3.3-18.617a8.842,8.842,0,0,1,13.285,7.064Z" fill="#b97964"/>
            <path id="Path_4331" data-name="Path 4331" d="M257.789,239.985a14.045,14.045,0,0,1-1.4,3.59,2.26,2.26,0,0,0,1.906.1Z" fill="#a24e3f"/>
            <path id="Path_4332" data-name="Path 4332" d="M262.68,235.575a.3.3,0,0,0,.11-.076.256.256,0,0,0-.031-.362l0,0a3.006,3.006,0,0,0-2.69-.667.266.266,0,0,0-.168.323.256.256,0,0,0,.315.17,2.52,2.52,0,0,1,2.22.572A.256.256,0,0,0,262.68,235.575Z" fill="#2e353a"/>
            <path id="Path_4333" data-name="Path 4333" d="M253.127,236.465a.29.29,0,0,0,.11-.076,2.509,2.509,0,0,1,2.1-.882.257.257,0,0,0,.295-.212v0a.264.264,0,0,0-.221-.294,3.031,3.031,0,0,0-2.567,1.05.257.257,0,0,0,.279.417Z" fill="#2e353a"/>
            <g id="Group_1714" data-name="Group 1714">
              <path id="Path_4334" data-name="Path 4334" d="M261.355,238.614c.072.518-.146.978-.491,1.029s-.674-.334-.742-.862.146-.978.484-1.027S261.28,238.088,261.355,238.614Z" fill="#2e353a"/>
              <path id="Path_4335" data-name="Path 4335" d="M255.455,239.43c.072.518-.146.978-.484,1.027s-.674-.334-.749-.859.146-.979.484-1.028S255.386,238.9,255.455,239.43Z" fill="#2e353a"/>
              <path id="Path_4336" data-name="Path 4336" d="M254.86,238.578l-1.3-.186S254.338,239.278,254.86,238.578Z" fill="#2e353a"/>
              <path id="Path_4337" data-name="Path 4337" d="M260.76,237.762l-1.3-.186S260.238,238.462,260.76,237.762Z" fill="#2e353a"/>
            </g>
            <path id="Path_4338" data-name="Path 4338" d="M261.765,243.9a3.674,3.674,0,0,0,.267-.576.123.123,0,0,0-.066-.162l0,0a.132.132,0,0,0-.162.081,3.413,3.413,0,0,1-2.223,2.122.126.126,0,0,0,.054.247A3.514,3.514,0,0,0,261.765,243.9Z" fill="#263238"/>
            <path id="Path_4339" data-name="Path 4339" d="M266,224.033c-4.152-1.033-8.448,1.142-8.448,1.142s-4.807,4.269-3.7,8.4a5.022,5.022,0,0,1,1.694-.813,6.134,6.134,0,0,1,1.218-4.388,9.2,9.2,0,0,0,.153,4.105,13.759,13.759,0,0,1,5.935.7s.83-1.711,0-5.427a12.95,12.95,0,0,1,1.657,6.331c.056,3.845,4.974,4.768,4.974,4.768s3.089-.33,3.053-4.463S270.154,225.065,266,224.033Z" fill="#263238"/>
            <path id="Path_4340" data-name="Path 4340" d="M264.169,223.791s-1.964-4.862-5.872-3.674S261.229,221.3,264.169,223.791Z" fill="#263238"/>
            <path id="Path_4341" data-name="Path 4341" d="M273.2,238.308a4.724,4.724,0,0,1-1.879,3.092c-1.348.97-2.591-.1-2.7-1.668-.092-1.41.5-3.621,2.083-3.97a2.14,2.14,0,0,1,2.5,1.707A2.116,2.116,0,0,1,273.2,238.308Z" fill="#b97964"/>
            <path id="Path_4342" data-name="Path 4342" d="M285.327,256.362c-3.056-1.045-7.246,10.666-9,14.311-.726,1.5-1.887,4.887-2.764,7.561a7.315,7.315,0,0,1-4.928,4.79l-16.392,4.646-6.661-2a1.722,1.722,0,0,0-1.469.229l-3.346,2.283a1.83,1.83,0,0,0-.791,1.514h0a1.786,1.786,0,0,0,1.9,1.811l9.9-.781s15.96.93,22.97-2.982S290.644,258.178,285.327,256.362Z" fill="#b97964"/>
          </g>
        </g>
        <g id="Group_1719" data-name="Group 1719">
          <path id="Path_4343" data-name="Path 4343" d="M272.569,291.54h-56.8a1.551,1.551,0,0,0,0,3.1h56.8a1.551,1.551,0,1,0,0-3.1Z" fill="#263238"/>
          <path id="Path_4344" data-name="Path 4344" d="M272.569,291.54h-56.8a1.551,1.551,0,0,0,0,3.1h56.8a1.551,1.551,0,1,0,0-3.1Z" fill="#fff" opacity="0.3"/>
          <g id="Group_1717" data-name="Group 1717">
            <path id="Path_4345" data-name="Path 4345" d="M216.61,293.694h19.416a.735.735,0,0,0,.694-.977L226.072,262.3a2.089,2.089,0,0,0-1.972-1.4H204.684a.735.735,0,0,0-.694.978L214.638,292.3A2.089,2.089,0,0,0,216.61,293.694Z" fill="#263238"/>
            <path id="Path_4346" data-name="Path 4346" d="M216.61,293.694h19.416a.735.735,0,0,0,.694-.977L226.072,262.3a2.089,2.089,0,0,0-1.972-1.4H204.684a.735.735,0,0,0-.694.978L214.638,292.3A2.089,2.089,0,0,0,216.61,293.694Z" fill="#fff" opacity="0.5"/>
          </g>
          <g id="Group_1718" data-name="Group 1718">
            <path id="Path_4347" data-name="Path 4347" d="M215.673,293.694h19.416a.734.734,0,0,0,.694-.977L225.135,262.3a2.089,2.089,0,0,0-1.972-1.4H203.747a.735.735,0,0,0-.693.978L213.7,292.3A2.089,2.089,0,0,0,215.673,293.694Z" fill="#263238"/>
          </g>
          <ellipse id="Ellipse_163" data-name="Ellipse 163" cx="1.305" cy="2.186" rx="1.305" ry="2.186" transform="matrix(0.946, -0.325, 0.325, 0.946, 217.25, 275.655)" fill="#fff"/>
          <path id="Path_4348" data-name="Path 4348" d="M238.521,294.643a1.551,1.551,0,1,1,0-3.1h34.048a1.551,1.551,0,1,1,0,3.1Z" fill="#fff" opacity="0.2"/>
        </g>
      </g>
      <g id="Table">
        <g id="Group_1720" data-name="Group 1720">
          <path id="Path_4349" data-name="Path 4349" d="M267.412,412.037h0c.711,0,1.277-.982,1.241-2.153l-3.374-108.516h-3.566l4.46,108.759C266.217,411.2,266.759,412.037,267.412,412.037Z" fill="#263238"/>
          <path id="Path_4350" data-name="Path 4350" d="M267.412,412.037h0c.711,0,1.277-.982,1.241-2.153l-3.374-108.516h-3.566l4.46,108.759C266.217,411.2,266.759,412.037,267.412,412.037Z" fill="#fff" opacity="0.5"/>
          <path id="Path_4351" data-name="Path 4351" d="M265.279,301.368h-3.565l.3,7.236H265.5Z" opacity="0.2"/>
        </g>
        <g id="Group_1721" data-name="Group 1721">
          <path id="Path_4352" data-name="Path 4352" d="M217.571,412.037h0c-.711,0-1.277-.982-1.241-2.153L219.7,301.368h3.566l-4.46,108.759C218.766,411.2,218.224,412.037,217.571,412.037Z" fill="#263238"/>
          <path id="Path_4353" data-name="Path 4353" d="M217.571,412.037h0c-.711,0-1.277-.982-1.241-2.153L219.7,301.368h3.566l-4.46,108.759C218.766,411.2,218.224,412.037,217.571,412.037Z" fill="#fff" opacity="0.5"/>
          <path id="Path_4354" data-name="Path 4354" d="M219.479,308.6h3.494l.3-7.236H219.7Z" opacity="0.2"/>
        </g>
        <g id="Group_1722" data-name="Group 1722">
          <path id="Path_4355" data-name="Path 4355" d="M138.21,412.037h0c.711,0,1.277-.982,1.241-2.153l-3.374-108.516h-3.565l4.459,108.759C137.015,411.2,137.557,412.037,138.21,412.037Z" fill="#263238"/>
          <path id="Path_4356" data-name="Path 4356" d="M138.21,412.037h0c.711,0,1.277-.982,1.241-2.153l-3.374-108.516h-3.565l4.459,108.759C137.015,411.2,137.557,412.037,138.21,412.037Z" fill="#fff" opacity="0.5"/>
          <path id="Path_4357" data-name="Path 4357" d="M136.077,301.368h-3.565l.3,7.236H136.3Z" opacity="0.2"/>
        </g>
        <g id="Group_1723" data-name="Group 1723">
          <path id="Path_4358" data-name="Path 4358" d="M88.369,412.037h0c-.711,0-1.277-.982-1.24-2.153L90.5,301.368h3.566l-4.46,108.759C89.564,411.2,89.023,412.037,88.369,412.037Z" fill="#263238"/>
          <path id="Path_4359" data-name="Path 4359" d="M88.369,412.037h0c-.711,0-1.277-.982-1.24-2.153L90.5,301.368h3.566l-4.46,108.759C89.564,411.2,89.023,412.037,88.369,412.037Z" fill="#fff" opacity="0.5"/>
          <path id="Path_4360" data-name="Path 4360" d="M90.277,308.6h3.494l.3-7.236H90.5Z" opacity="0.2"/>
        </g>
        <rect id="Rectangle_5096" data-name="Rectangle 5096" width="181.084" height="3.438" transform="translate(87.062 297.93)" fill="#263238"/>
        <rect id="Rectangle_5097" data-name="Rectangle 5097" width="181.084" height="3.438" transform="translate(87.062 297.93)" fill="#fff" opacity="0.3"/>
        <rect id="Rectangle_5098" data-name="Rectangle 5098" width="190.409" height="3.438" transform="translate(82.399 294.491)" fill="#407bff"/>
      </g>
    </g>
  </g>
</svg>
