<svg id="Component_11_2" data-name="Component 11 – 2" xmlns="http://www.w3.org/2000/svg" width="19" height="17.177" viewBox="0 0 19 17.177">
  <path id="Path_4365" data-name="Path 4365" d="M18.174,9.147a3.2,3.2,0,0,0,0-4.294C16.316,2.8,13.125,0,9.5,0S2.684,2.8.826,4.853a3.2,3.2,0,0,0,0,4.294C2.684,11.2,5.875,14,9.5,14S16.316,11.2,18.174,9.147ZM9.5,10a2.928,2.928,0,0,0,2.85-3A2.928,2.928,0,0,0,9.5,4,2.928,2.928,0,0,0,6.65,7,2.928,2.928,0,0,0,9.5,10Z" transform="translate(0 3.177)" fill="#00004e" fill-rule="evenodd"/>
  <rect id="Rectangle_5104" data-name="Rectangle 5104" width="0.422" height="2" transform="translate(3.222) rotate(45)" fill="#e7e5ec" opacity="0"/>
  <rect id="Rectangle_5103" data-name="Rectangle 5103" width="0.405" height="2" rx="0.202" transform="translate(2.222 1) rotate(45)" fill="#00004e" opacity="0"/>
</svg>
