<svg xmlns="http://www.w3.org/2000/svg" width="16.128" height="20.161" viewBox="0 0 16.128 20.161">
  <path id="Path_4134" data-name="Path 4134" d="M177.448,54.724H176.44V51.7a5.04,5.04,0,1,0-10.08,0v3.024h-1.008a2.016,2.016,0,0,0-2.016,2.016V64.8a2.016,2.016,0,0,0,2.016,2.016h12.1a2.016,2.016,0,0,0,2.016-2.016V56.74a2.016,2.016,0,0,0-2.016-2.016ZM168.376,51.7a3.024,3.024,0,0,1,6.048,0v3.024h-6.048ZM171.4,62.789a2.016,2.016,0,1,1,1.426-.59A2.017,2.017,0,0,1,171.4,62.789Z" transform="translate(-163.336 -46.66)" fill="#00004e"/>
</svg>
